<?xml version="1.0" encoding="utf-8" standalone="no"?>
<!DOCTYPE svg PUBLIC "-//W3C//DTD SVG 1.1//EN"
  "http://www.w3.org/Graphics/SVG/1.1/DTD/svg11.dtd">
<svg xmlns:xlink="http://www.w3.org/1999/xlink" width="1152pt" height="576pt" viewBox="0 0 1152 576" xmlns="http://www.w3.org/2000/svg" version="1.1">
 <metadata>
  <rdf:RDF xmlns:dc="http://purl.org/dc/elements/1.1/" xmlns:cc="http://creativecommons.org/ns#" xmlns:rdf="http://www.w3.org/1999/02/22-rdf-syntax-ns#">
   <cc:Work>
    <dc:type rdf:resource="http://purl.org/dc/dcmitype/StillImage"/>
    <dc:date>2024-08-20T13:26:14.726685</dc:date>
    <dc:format>image/svg+xml</dc:format>
    <dc:creator>
     <cc:Agent>
      <dc:title>Matplotlib v3.9.0, https://matplotlib.org/</dc:title>
     </cc:Agent>
    </dc:creator>
   </cc:Work>
  </rdf:RDF>
 </metadata>
 <defs>
  <style type="text/css">*{stroke-linejoin: round; stroke-linecap: butt}</style>
 </defs>
 <g id="figure_1">
  <g id="patch_1">
   <path d="M 0 576 
L 1152 576 
L 1152 0 
L 0 0 
z
" style="fill: #ffffff"/>
  </g>
  <g id="axes_1">
   <g id="patch_2">
    <path d="M 54.52 173.08 
L 570.6 173.08 
L 570.6 34.56 
L 54.52 34.56 
z
" style="fill: #ffffff"/>
   </g>
   <g id="PathCollection_1">
    <defs>
     <path id="m592681eb73" d="M 0 3 
C 0.795609 3 1.55874 2.683901 2.12132 2.12132 
C 2.683901 1.55874 3 0.795609 3 0 
C 3 -0.795609 2.683901 -1.55874 2.12132 -2.12132 
C 1.55874 -2.683901 0.795609 -3 0 -3 
C -0.795609 -3 -1.55874 -2.683901 -2.12132 -2.12132 
C -2.683901 -1.55874 -3 -0.795609 -3 0 
C -3 0.795609 -2.683901 1.55874 -2.12132 2.12132 
C -1.55874 2.683901 -0.795609 3 0 3 
z
" style="stroke: #1f77b4; stroke-opacity: 0"/>
    </defs>
    <g clip-path="url(#p57b0de01b2)">
     <use xlink:href="#m592681eb73" x="77.978182" y="103.82" style="fill: #1f77b4; fill-opacity: 0; stroke: #1f77b4; stroke-opacity: 0"/>
    </g>
   </g>
   <g id="matplotlib.axis_1">
    <g id="xtick_1">
     <g id="line2d_1">
      <path d="M 77.978182 173.08 
L 77.978182 34.56 
" clip-path="url(#p57b0de01b2)" style="fill: none; stroke: #b0b0b0; stroke-width: 0.8; stroke-linecap: square"/>
     </g>
     <g id="line2d_2">
      <defs>
       <path id="m7d0a9a6fd8" d="M 0 0 
L 0 3.5 
" style="stroke: #000000; stroke-width: 0.8"/>
      </defs>
      <g>
       <use xlink:href="#m7d0a9a6fd8" x="77.978182" y="173.08" style="stroke: #000000; stroke-width: 0.8"/>
      </g>
     </g>
     <g id="text_1">
      <!-- 0 -->
      <g transform="translate(74.796932 187.678437) scale(0.1 -0.1)">
       <defs>
        <path id="DejaVuSans-30" d="M 2034 4250 
Q 1547 4250 1301 3770 
Q 1056 3291 1056 2328 
Q 1056 1369 1301 889 
Q 1547 409 2034 409 
Q 2525 409 2770 889 
Q 3016 1369 3016 2328 
Q 3016 3291 2770 3770 
Q 2525 4250 2034 4250 
z
M 2034 4750 
Q 2819 4750 3233 4129 
Q 3647 3509 3647 2328 
Q 3647 1150 3233 529 
Q 2819 -91 2034 -91 
Q 1250 -91 836 529 
Q 422 1150 422 2328 
Q 422 3509 836 4129 
Q 1250 4750 2034 4750 
z
" transform="scale(0.015625)"/>
       </defs>
       <use xlink:href="#DejaVuSans-30"/>
      </g>
     </g>
    </g>
    <g id="xtick_2">
     <g id="line2d_3">
      <path d="M 189.647919 173.08 
L 189.647919 34.56 
" clip-path="url(#p57b0de01b2)" style="fill: none; stroke: #b0b0b0; stroke-width: 0.8; stroke-linecap: square"/>
     </g>
     <g id="line2d_4">
      <g>
       <use xlink:href="#m7d0a9a6fd8" x="189.647919" y="173.08" style="stroke: #000000; stroke-width: 0.8"/>
      </g>
     </g>
     <g id="text_2">
      <!-- 5 -->
      <g transform="translate(186.466669 187.678437) scale(0.1 -0.1)">
       <defs>
        <path id="DejaVuSans-35" d="M 691 4666 
L 3169 4666 
L 3169 4134 
L 1269 4134 
L 1269 2991 
Q 1406 3038 1543 3061 
Q 1681 3084 1819 3084 
Q 2600 3084 3056 2656 
Q 3513 2228 3513 1497 
Q 3513 744 3044 326 
Q 2575 -91 1722 -91 
Q 1428 -91 1123 -41 
Q 819 9 494 109 
L 494 744 
Q 775 591 1075 516 
Q 1375 441 1709 441 
Q 2250 441 2565 725 
Q 2881 1009 2881 1497 
Q 2881 1984 2565 2268 
Q 2250 2553 1709 2553 
Q 1456 2553 1204 2497 
Q 953 2441 691 2322 
L 691 4666 
z
" transform="scale(0.015625)"/>
       </defs>
       <use xlink:href="#DejaVuSans-35"/>
      </g>
     </g>
    </g>
    <g id="xtick_3">
     <g id="line2d_5">
      <path d="M 301.317656 173.08 
L 301.317656 34.56 
" clip-path="url(#p57b0de01b2)" style="fill: none; stroke: #b0b0b0; stroke-width: 0.8; stroke-linecap: square"/>
     </g>
     <g id="line2d_6">
      <g>
       <use xlink:href="#m7d0a9a6fd8" x="301.317656" y="173.08" style="stroke: #000000; stroke-width: 0.8"/>
      </g>
     </g>
     <g id="text_3">
      <!-- 10 -->
      <g transform="translate(294.955156 187.678437) scale(0.1 -0.1)">
       <defs>
        <path id="DejaVuSans-31" d="M 794 531 
L 1825 531 
L 1825 4091 
L 703 3866 
L 703 4441 
L 1819 4666 
L 2450 4666 
L 2450 531 
L 3481 531 
L 3481 0 
L 794 0 
L 794 531 
z
" transform="scale(0.015625)"/>
       </defs>
       <use xlink:href="#DejaVuSans-31"/>
       <use xlink:href="#DejaVuSans-30" x="63.623047"/>
      </g>
     </g>
    </g>
    <g id="xtick_4">
     <g id="line2d_7">
      <path d="M 412.987393 173.08 
L 412.987393 34.56 
" clip-path="url(#p57b0de01b2)" style="fill: none; stroke: #b0b0b0; stroke-width: 0.8; stroke-linecap: square"/>
     </g>
     <g id="line2d_8">
      <g>
       <use xlink:href="#m7d0a9a6fd8" x="412.987393" y="173.08" style="stroke: #000000; stroke-width: 0.8"/>
      </g>
     </g>
     <g id="text_4">
      <!-- 15 -->
      <g transform="translate(406.624893 187.678437) scale(0.1 -0.1)">
       <use xlink:href="#DejaVuSans-31"/>
       <use xlink:href="#DejaVuSans-35" x="63.623047"/>
      </g>
     </g>
    </g>
    <g id="xtick_5">
     <g id="line2d_9">
      <path d="M 524.65713 173.08 
L 524.65713 34.56 
" clip-path="url(#p57b0de01b2)" style="fill: none; stroke: #b0b0b0; stroke-width: 0.8; stroke-linecap: square"/>
     </g>
     <g id="line2d_10">
      <g>
       <use xlink:href="#m7d0a9a6fd8" x="524.65713" y="173.08" style="stroke: #000000; stroke-width: 0.8"/>
      </g>
     </g>
     <g id="text_5">
      <!-- 20 -->
      <g transform="translate(518.29463 187.678437) scale(0.1 -0.1)">
       <defs>
        <path id="DejaVuSans-32" d="M 1228 531 
L 3431 531 
L 3431 0 
L 469 0 
L 469 531 
Q 828 903 1448 1529 
Q 2069 2156 2228 2338 
Q 2531 2678 2651 2914 
Q 2772 3150 2772 3378 
Q 2772 3750 2511 3984 
Q 2250 4219 1831 4219 
Q 1534 4219 1204 4116 
Q 875 4013 500 3803 
L 500 4441 
Q 881 4594 1212 4672 
Q 1544 4750 1819 4750 
Q 2544 4750 2975 4387 
Q 3406 4025 3406 3419 
Q 3406 3131 3298 2873 
Q 3191 2616 2906 2266 
Q 2828 2175 2409 1742 
Q 1991 1309 1228 531 
z
" transform="scale(0.015625)"/>
       </defs>
       <use xlink:href="#DejaVuSans-32"/>
       <use xlink:href="#DejaVuSans-30" x="63.623047"/>
      </g>
     </g>
    </g>
    <g id="text_6">
     <!-- Waktu (s) -->
     <g transform="translate(288.751406 201.356562) scale(0.1 -0.1)">
      <defs>
       <path id="DejaVuSans-57" d="M 213 4666 
L 850 4666 
L 1831 722 
L 2809 4666 
L 3519 4666 
L 4500 722 
L 5478 4666 
L 6119 4666 
L 4947 0 
L 4153 0 
L 3169 4050 
L 2175 0 
L 1381 0 
L 213 4666 
z
" transform="scale(0.015625)"/>
       <path id="DejaVuSans-61" d="M 2194 1759 
Q 1497 1759 1228 1600 
Q 959 1441 959 1056 
Q 959 750 1161 570 
Q 1363 391 1709 391 
Q 2188 391 2477 730 
Q 2766 1069 2766 1631 
L 2766 1759 
L 2194 1759 
z
M 3341 1997 
L 3341 0 
L 2766 0 
L 2766 531 
Q 2569 213 2275 61 
Q 1981 -91 1556 -91 
Q 1019 -91 701 211 
Q 384 513 384 1019 
Q 384 1609 779 1909 
Q 1175 2209 1959 2209 
L 2766 2209 
L 2766 2266 
Q 2766 2663 2505 2880 
Q 2244 3097 1772 3097 
Q 1472 3097 1187 3025 
Q 903 2953 641 2809 
L 641 3341 
Q 956 3463 1253 3523 
Q 1550 3584 1831 3584 
Q 2591 3584 2966 3190 
Q 3341 2797 3341 1997 
z
" transform="scale(0.015625)"/>
       <path id="DejaVuSans-6b" d="M 581 4863 
L 1159 4863 
L 1159 1991 
L 2875 3500 
L 3609 3500 
L 1753 1863 
L 3688 0 
L 2938 0 
L 1159 1709 
L 1159 0 
L 581 0 
L 581 4863 
z
" transform="scale(0.015625)"/>
       <path id="DejaVuSans-74" d="M 1172 4494 
L 1172 3500 
L 2356 3500 
L 2356 3053 
L 1172 3053 
L 1172 1153 
Q 1172 725 1289 603 
Q 1406 481 1766 481 
L 2356 481 
L 2356 0 
L 1766 0 
Q 1100 0 847 248 
Q 594 497 594 1153 
L 594 3053 
L 172 3053 
L 172 3500 
L 594 3500 
L 594 4494 
L 1172 4494 
z
" transform="scale(0.015625)"/>
       <path id="DejaVuSans-75" d="M 544 1381 
L 544 3500 
L 1119 3500 
L 1119 1403 
Q 1119 906 1312 657 
Q 1506 409 1894 409 
Q 2359 409 2629 706 
Q 2900 1003 2900 1516 
L 2900 3500 
L 3475 3500 
L 3475 0 
L 2900 0 
L 2900 538 
Q 2691 219 2414 64 
Q 2138 -91 1772 -91 
Q 1169 -91 856 284 
Q 544 659 544 1381 
z
M 1991 3584 
L 1991 3584 
z
" transform="scale(0.015625)"/>
       <path id="DejaVuSans-20" transform="scale(0.015625)"/>
       <path id="DejaVuSans-28" d="M 1984 4856 
Q 1566 4138 1362 3434 
Q 1159 2731 1159 2009 
Q 1159 1288 1364 580 
Q 1569 -128 1984 -844 
L 1484 -844 
Q 1016 -109 783 600 
Q 550 1309 550 2009 
Q 550 2706 781 3412 
Q 1013 4119 1484 4856 
L 1984 4856 
z
" transform="scale(0.015625)"/>
       <path id="DejaVuSans-73" d="M 2834 3397 
L 2834 2853 
Q 2591 2978 2328 3040 
Q 2066 3103 1784 3103 
Q 1356 3103 1142 2972 
Q 928 2841 928 2578 
Q 928 2378 1081 2264 
Q 1234 2150 1697 2047 
L 1894 2003 
Q 2506 1872 2764 1633 
Q 3022 1394 3022 966 
Q 3022 478 2636 193 
Q 2250 -91 1575 -91 
Q 1294 -91 989 -36 
Q 684 19 347 128 
L 347 722 
Q 666 556 975 473 
Q 1284 391 1588 391 
Q 1994 391 2212 530 
Q 2431 669 2431 922 
Q 2431 1156 2273 1281 
Q 2116 1406 1581 1522 
L 1381 1569 
Q 847 1681 609 1914 
Q 372 2147 372 2553 
Q 372 3047 722 3315 
Q 1072 3584 1716 3584 
Q 2034 3584 2315 3537 
Q 2597 3491 2834 3397 
z
" transform="scale(0.015625)"/>
       <path id="DejaVuSans-29" d="M 513 4856 
L 1013 4856 
Q 1481 4119 1714 3412 
Q 1947 2706 1947 2009 
Q 1947 1309 1714 600 
Q 1481 -109 1013 -844 
L 513 -844 
Q 928 -128 1133 580 
Q 1338 1288 1338 2009 
Q 1338 2731 1133 3434 
Q 928 4138 513 4856 
z
" transform="scale(0.015625)"/>
      </defs>
      <use xlink:href="#DejaVuSans-57"/>
      <use xlink:href="#DejaVuSans-61" x="92.501953"/>
      <use xlink:href="#DejaVuSans-6b" x="153.78125"/>
      <use xlink:href="#DejaVuSans-74" x="211.691406"/>
      <use xlink:href="#DejaVuSans-75" x="250.900391"/>
      <use xlink:href="#DejaVuSans-20" x="314.279297"/>
      <use xlink:href="#DejaVuSans-28" x="346.066406"/>
      <use xlink:href="#DejaVuSans-73" x="385.080078"/>
      <use xlink:href="#DejaVuSans-29" x="437.179688"/>
     </g>
    </g>
   </g>
   <g id="matplotlib.axis_2">
    <g id="ytick_1">
     <g id="line2d_11">
      <path d="M 54.52 154.190909 
L 570.6 154.190909 
" clip-path="url(#p57b0de01b2)" style="fill: none; stroke: #b0b0b0; stroke-width: 0.8; stroke-linecap: square"/>
     </g>
     <g id="line2d_12">
      <defs>
       <path id="mc6d661575c" d="M 0 0 
L -3.5 0 
" style="stroke: #000000; stroke-width: 0.8"/>
      </defs>
      <g>
       <use xlink:href="#mc6d661575c" x="54.52" y="154.190909" style="stroke: #000000; stroke-width: 0.8"/>
      </g>
     </g>
     <g id="text_7">
      <!-- −0.04 -->
      <g transform="translate(16.874688 157.990128) scale(0.1 -0.1)">
       <defs>
        <path id="DejaVuSans-2212" d="M 678 2272 
L 4684 2272 
L 4684 1741 
L 678 1741 
L 678 2272 
z
" transform="scale(0.015625)"/>
        <path id="DejaVuSans-2e" d="M 684 794 
L 1344 794 
L 1344 0 
L 684 0 
L 684 794 
z
" transform="scale(0.015625)"/>
        <path id="DejaVuSans-34" d="M 2419 4116 
L 825 1625 
L 2419 1625 
L 2419 4116 
z
M 2253 4666 
L 3047 4666 
L 3047 1625 
L 3713 1625 
L 3713 1100 
L 3047 1100 
L 3047 0 
L 2419 0 
L 2419 1100 
L 313 1100 
L 313 1709 
L 2253 4666 
z
" transform="scale(0.015625)"/>
       </defs>
       <use xlink:href="#DejaVuSans-2212"/>
       <use xlink:href="#DejaVuSans-30" x="83.789062"/>
       <use xlink:href="#DejaVuSans-2e" x="147.412109"/>
       <use xlink:href="#DejaVuSans-30" x="179.199219"/>
       <use xlink:href="#DejaVuSans-34" x="242.822266"/>
      </g>
     </g>
    </g>
    <g id="ytick_2">
     <g id="line2d_13">
      <path d="M 54.52 129.005455 
L 570.6 129.005455 
" clip-path="url(#p57b0de01b2)" style="fill: none; stroke: #b0b0b0; stroke-width: 0.8; stroke-linecap: square"/>
     </g>
     <g id="line2d_14">
      <g>
       <use xlink:href="#mc6d661575c" x="54.52" y="129.005455" style="stroke: #000000; stroke-width: 0.8"/>
      </g>
     </g>
     <g id="text_8">
      <!-- −0.02 -->
      <g transform="translate(16.874688 132.804673) scale(0.1 -0.1)">
       <use xlink:href="#DejaVuSans-2212"/>
       <use xlink:href="#DejaVuSans-30" x="83.789062"/>
       <use xlink:href="#DejaVuSans-2e" x="147.412109"/>
       <use xlink:href="#DejaVuSans-30" x="179.199219"/>
       <use xlink:href="#DejaVuSans-32" x="242.822266"/>
      </g>
     </g>
    </g>
    <g id="ytick_3">
     <g id="line2d_15">
      <path d="M 54.52 103.82 
L 570.6 103.82 
" clip-path="url(#p57b0de01b2)" style="fill: none; stroke: #b0b0b0; stroke-width: 0.8; stroke-linecap: square"/>
     </g>
     <g id="line2d_16">
      <g>
       <use xlink:href="#mc6d661575c" x="54.52" y="103.82" style="stroke: #000000; stroke-width: 0.8"/>
      </g>
     </g>
     <g id="text_9">
      <!-- 0.00 -->
      <g transform="translate(25.254375 107.619219) scale(0.1 -0.1)">
       <use xlink:href="#DejaVuSans-30"/>
       <use xlink:href="#DejaVuSans-2e" x="63.623047"/>
       <use xlink:href="#DejaVuSans-30" x="95.410156"/>
       <use xlink:href="#DejaVuSans-30" x="159.033203"/>
      </g>
     </g>
    </g>
    <g id="ytick_4">
     <g id="line2d_17">
      <path d="M 54.52 78.634545 
L 570.6 78.634545 
" clip-path="url(#p57b0de01b2)" style="fill: none; stroke: #b0b0b0; stroke-width: 0.8; stroke-linecap: square"/>
     </g>
     <g id="line2d_18">
      <g>
       <use xlink:href="#mc6d661575c" x="54.52" y="78.634545" style="stroke: #000000; stroke-width: 0.8"/>
      </g>
     </g>
     <g id="text_10">
      <!-- 0.02 -->
      <g transform="translate(25.254375 82.433764) scale(0.1 -0.1)">
       <use xlink:href="#DejaVuSans-30"/>
       <use xlink:href="#DejaVuSans-2e" x="63.623047"/>
       <use xlink:href="#DejaVuSans-30" x="95.410156"/>
       <use xlink:href="#DejaVuSans-32" x="159.033203"/>
      </g>
     </g>
    </g>
    <g id="ytick_5">
     <g id="line2d_19">
      <path d="M 54.52 53.449091 
L 570.6 53.449091 
" clip-path="url(#p57b0de01b2)" style="fill: none; stroke: #b0b0b0; stroke-width: 0.8; stroke-linecap: square"/>
     </g>
     <g id="line2d_20">
      <g>
       <use xlink:href="#mc6d661575c" x="54.52" y="53.449091" style="stroke: #000000; stroke-width: 0.8"/>
      </g>
     </g>
     <g id="text_11">
      <!-- 0.04 -->
      <g transform="translate(25.254375 57.24831) scale(0.1 -0.1)">
       <use xlink:href="#DejaVuSans-30"/>
       <use xlink:href="#DejaVuSans-2e" x="63.623047"/>
       <use xlink:href="#DejaVuSans-30" x="95.410156"/>
       <use xlink:href="#DejaVuSans-34" x="159.033203"/>
      </g>
     </g>
    </g>
   </g>
   <g id="line2d_21">
    <path d="M 77.989497 103.82 
L 547.141818 103.82 
L 547.141818 103.82 
" clip-path="url(#p57b0de01b2)" style="fill: none; stroke: #1f77b4; stroke-width: 1.5; stroke-linecap: square"/>
   </g>
   <g id="patch_3">
    <path d="M 54.52 173.08 
L 54.52 34.56 
" style="fill: none; stroke: #000000; stroke-width: 0.8; stroke-linejoin: miter; stroke-linecap: square"/>
   </g>
   <g id="patch_4">
    <path d="M 570.6 173.08 
L 570.6 34.56 
" style="fill: none; stroke: #000000; stroke-width: 0.8; stroke-linejoin: miter; stroke-linecap: square"/>
   </g>
   <g id="patch_5">
    <path d="M 54.52 173.08 
L 570.6 173.08 
" style="fill: none; stroke: #000000; stroke-width: 0.8; stroke-linejoin: miter; stroke-linecap: square"/>
   </g>
   <g id="patch_6">
    <path d="M 54.52 34.56 
L 570.6 34.56 
" style="fill: none; stroke: #000000; stroke-width: 0.8; stroke-linejoin: miter; stroke-linecap: square"/>
   </g>
   <g id="legend_1">
    <g id="patch_7">
     <path d="M 409.742188 57.238125 
L 563.6 57.238125 
Q 565.6 57.238125 565.6 55.238125 
L 565.6 41.56 
Q 565.6 39.56 563.6 39.56 
L 409.742188 39.56 
Q 407.742188 39.56 407.742188 41.56 
L 407.742188 55.238125 
Q 407.742188 57.238125 409.742188 57.238125 
z
" style="fill: #ffffff; opacity: 0.8; stroke: #cccccc; stroke-linejoin: miter"/>
    </g>
    <g id="line2d_22">
     <path d="M 411.742188 47.658438 
L 421.742188 47.658438 
L 431.742188 47.658438 
" style="fill: none; stroke: #1f77b4; stroke-width: 1.5; stroke-linecap: square"/>
    </g>
    <g id="text_12">
     <!-- Tegangan motor troli (V) -->
     <g transform="translate(439.742188 51.158438) scale(0.1 -0.1)">
      <defs>
       <path id="DejaVuSans-54" d="M -19 4666 
L 3928 4666 
L 3928 4134 
L 2272 4134 
L 2272 0 
L 1638 0 
L 1638 4134 
L -19 4134 
L -19 4666 
z
" transform="scale(0.015625)"/>
       <path id="DejaVuSans-65" d="M 3597 1894 
L 3597 1613 
L 953 1613 
Q 991 1019 1311 708 
Q 1631 397 2203 397 
Q 2534 397 2845 478 
Q 3156 559 3463 722 
L 3463 178 
Q 3153 47 2828 -22 
Q 2503 -91 2169 -91 
Q 1331 -91 842 396 
Q 353 884 353 1716 
Q 353 2575 817 3079 
Q 1281 3584 2069 3584 
Q 2775 3584 3186 3129 
Q 3597 2675 3597 1894 
z
M 3022 2063 
Q 3016 2534 2758 2815 
Q 2500 3097 2075 3097 
Q 1594 3097 1305 2825 
Q 1016 2553 972 2059 
L 3022 2063 
z
" transform="scale(0.015625)"/>
       <path id="DejaVuSans-67" d="M 2906 1791 
Q 2906 2416 2648 2759 
Q 2391 3103 1925 3103 
Q 1463 3103 1205 2759 
Q 947 2416 947 1791 
Q 947 1169 1205 825 
Q 1463 481 1925 481 
Q 2391 481 2648 825 
Q 2906 1169 2906 1791 
z
M 3481 434 
Q 3481 -459 3084 -895 
Q 2688 -1331 1869 -1331 
Q 1566 -1331 1297 -1286 
Q 1028 -1241 775 -1147 
L 775 -588 
Q 1028 -725 1275 -790 
Q 1522 -856 1778 -856 
Q 2344 -856 2625 -561 
Q 2906 -266 2906 331 
L 2906 616 
Q 2728 306 2450 153 
Q 2172 0 1784 0 
Q 1141 0 747 490 
Q 353 981 353 1791 
Q 353 2603 747 3093 
Q 1141 3584 1784 3584 
Q 2172 3584 2450 3431 
Q 2728 3278 2906 2969 
L 2906 3500 
L 3481 3500 
L 3481 434 
z
" transform="scale(0.015625)"/>
       <path id="DejaVuSans-6e" d="M 3513 2113 
L 3513 0 
L 2938 0 
L 2938 2094 
Q 2938 2591 2744 2837 
Q 2550 3084 2163 3084 
Q 1697 3084 1428 2787 
Q 1159 2491 1159 1978 
L 1159 0 
L 581 0 
L 581 3500 
L 1159 3500 
L 1159 2956 
Q 1366 3272 1645 3428 
Q 1925 3584 2291 3584 
Q 2894 3584 3203 3211 
Q 3513 2838 3513 2113 
z
" transform="scale(0.015625)"/>
       <path id="DejaVuSans-6d" d="M 3328 2828 
Q 3544 3216 3844 3400 
Q 4144 3584 4550 3584 
Q 5097 3584 5394 3201 
Q 5691 2819 5691 2113 
L 5691 0 
L 5113 0 
L 5113 2094 
Q 5113 2597 4934 2840 
Q 4756 3084 4391 3084 
Q 3944 3084 3684 2787 
Q 3425 2491 3425 1978 
L 3425 0 
L 2847 0 
L 2847 2094 
Q 2847 2600 2669 2842 
Q 2491 3084 2119 3084 
Q 1678 3084 1418 2786 
Q 1159 2488 1159 1978 
L 1159 0 
L 581 0 
L 581 3500 
L 1159 3500 
L 1159 2956 
Q 1356 3278 1631 3431 
Q 1906 3584 2284 3584 
Q 2666 3584 2933 3390 
Q 3200 3197 3328 2828 
z
" transform="scale(0.015625)"/>
       <path id="DejaVuSans-6f" d="M 1959 3097 
Q 1497 3097 1228 2736 
Q 959 2375 959 1747 
Q 959 1119 1226 758 
Q 1494 397 1959 397 
Q 2419 397 2687 759 
Q 2956 1122 2956 1747 
Q 2956 2369 2687 2733 
Q 2419 3097 1959 3097 
z
M 1959 3584 
Q 2709 3584 3137 3096 
Q 3566 2609 3566 1747 
Q 3566 888 3137 398 
Q 2709 -91 1959 -91 
Q 1206 -91 779 398 
Q 353 888 353 1747 
Q 353 2609 779 3096 
Q 1206 3584 1959 3584 
z
" transform="scale(0.015625)"/>
       <path id="DejaVuSans-72" d="M 2631 2963 
Q 2534 3019 2420 3045 
Q 2306 3072 2169 3072 
Q 1681 3072 1420 2755 
Q 1159 2438 1159 1844 
L 1159 0 
L 581 0 
L 581 3500 
L 1159 3500 
L 1159 2956 
Q 1341 3275 1631 3429 
Q 1922 3584 2338 3584 
Q 2397 3584 2469 3576 
Q 2541 3569 2628 3553 
L 2631 2963 
z
" transform="scale(0.015625)"/>
       <path id="DejaVuSans-6c" d="M 603 4863 
L 1178 4863 
L 1178 0 
L 603 0 
L 603 4863 
z
" transform="scale(0.015625)"/>
       <path id="DejaVuSans-69" d="M 603 3500 
L 1178 3500 
L 1178 0 
L 603 0 
L 603 3500 
z
M 603 4863 
L 1178 4863 
L 1178 4134 
L 603 4134 
L 603 4863 
z
" transform="scale(0.015625)"/>
       <path id="DejaVuSans-56" d="M 1831 0 
L 50 4666 
L 709 4666 
L 2188 738 
L 3669 4666 
L 4325 4666 
L 2547 0 
L 1831 0 
z
" transform="scale(0.015625)"/>
      </defs>
      <use xlink:href="#DejaVuSans-54"/>
      <use xlink:href="#DejaVuSans-65" x="44.083984"/>
      <use xlink:href="#DejaVuSans-67" x="105.607422"/>
      <use xlink:href="#DejaVuSans-61" x="169.083984"/>
      <use xlink:href="#DejaVuSans-6e" x="230.363281"/>
      <use xlink:href="#DejaVuSans-67" x="293.742188"/>
      <use xlink:href="#DejaVuSans-61" x="357.21875"/>
      <use xlink:href="#DejaVuSans-6e" x="418.498047"/>
      <use xlink:href="#DejaVuSans-20" x="481.876953"/>
      <use xlink:href="#DejaVuSans-6d" x="513.664062"/>
      <use xlink:href="#DejaVuSans-6f" x="611.076172"/>
      <use xlink:href="#DejaVuSans-74" x="672.257812"/>
      <use xlink:href="#DejaVuSans-6f" x="711.466797"/>
      <use xlink:href="#DejaVuSans-72" x="772.648438"/>
      <use xlink:href="#DejaVuSans-20" x="813.761719"/>
      <use xlink:href="#DejaVuSans-74" x="845.548828"/>
      <use xlink:href="#DejaVuSans-72" x="884.757812"/>
      <use xlink:href="#DejaVuSans-6f" x="923.621094"/>
      <use xlink:href="#DejaVuSans-6c" x="984.802734"/>
      <use xlink:href="#DejaVuSans-69" x="1012.585938"/>
      <use xlink:href="#DejaVuSans-20" x="1040.369141"/>
      <use xlink:href="#DejaVuSans-28" x="1072.15625"/>
      <use xlink:href="#DejaVuSans-56" x="1111.169922"/>
      <use xlink:href="#DejaVuSans-29" x="1179.578125"/>
     </g>
    </g>
   </g>
  </g>
  <g id="axes_2">
   <g id="patch_8">
    <path d="M 625.12 173.08 
L 1141.2 173.08 
L 1141.2 34.56 
L 625.12 34.56 
z
" style="fill: #ffffff"/>
   </g>
   <g id="PathCollection_2">
    <g clip-path="url(#p9046965c22)">
     <use xlink:href="#m592681eb73" x="648.578182" y="104.54381" style="fill: #1f77b4; fill-opacity: 0; stroke: #1f77b4; stroke-opacity: 0"/>
    </g>
   </g>
   <g id="matplotlib.axis_3">
    <g id="xtick_6">
     <g id="line2d_23">
      <path d="M 648.578182 173.08 
L 648.578182 34.56 
" clip-path="url(#p9046965c22)" style="fill: none; stroke: #b0b0b0; stroke-width: 0.8; stroke-linecap: square"/>
     </g>
     <g id="line2d_24">
      <g>
       <use xlink:href="#m7d0a9a6fd8" x="648.578182" y="173.08" style="stroke: #000000; stroke-width: 0.8"/>
      </g>
     </g>
     <g id="text_13">
      <!-- 0 -->
      <g transform="translate(645.396932 187.678437) scale(0.1 -0.1)">
       <use xlink:href="#DejaVuSans-30"/>
      </g>
     </g>
    </g>
    <g id="xtick_7">
     <g id="line2d_25">
      <path d="M 760.247919 173.08 
L 760.247919 34.56 
" clip-path="url(#p9046965c22)" style="fill: none; stroke: #b0b0b0; stroke-width: 0.8; stroke-linecap: square"/>
     </g>
     <g id="line2d_26">
      <g>
       <use xlink:href="#m7d0a9a6fd8" x="760.247919" y="173.08" style="stroke: #000000; stroke-width: 0.8"/>
      </g>
     </g>
     <g id="text_14">
      <!-- 5 -->
      <g transform="translate(757.066669 187.678437) scale(0.1 -0.1)">
       <use xlink:href="#DejaVuSans-35"/>
      </g>
     </g>
    </g>
    <g id="xtick_8">
     <g id="line2d_27">
      <path d="M 871.917656 173.08 
L 871.917656 34.56 
" clip-path="url(#p9046965c22)" style="fill: none; stroke: #b0b0b0; stroke-width: 0.8; stroke-linecap: square"/>
     </g>
     <g id="line2d_28">
      <g>
       <use xlink:href="#m7d0a9a6fd8" x="871.917656" y="173.08" style="stroke: #000000; stroke-width: 0.8"/>
      </g>
     </g>
     <g id="text_15">
      <!-- 10 -->
      <g transform="translate(865.555156 187.678437) scale(0.1 -0.1)">
       <use xlink:href="#DejaVuSans-31"/>
       <use xlink:href="#DejaVuSans-30" x="63.623047"/>
      </g>
     </g>
    </g>
    <g id="xtick_9">
     <g id="line2d_29">
      <path d="M 983.587393 173.08 
L 983.587393 34.56 
" clip-path="url(#p9046965c22)" style="fill: none; stroke: #b0b0b0; stroke-width: 0.8; stroke-linecap: square"/>
     </g>
     <g id="line2d_30">
      <g>
       <use xlink:href="#m7d0a9a6fd8" x="983.587393" y="173.08" style="stroke: #000000; stroke-width: 0.8"/>
      </g>
     </g>
     <g id="text_16">
      <!-- 15 -->
      <g transform="translate(977.224893 187.678437) scale(0.1 -0.1)">
       <use xlink:href="#DejaVuSans-31"/>
       <use xlink:href="#DejaVuSans-35" x="63.623047"/>
      </g>
     </g>
    </g>
    <g id="xtick_10">
     <g id="line2d_31">
      <path d="M 1095.25713 173.08 
L 1095.25713 34.56 
" clip-path="url(#p9046965c22)" style="fill: none; stroke: #b0b0b0; stroke-width: 0.8; stroke-linecap: square"/>
     </g>
     <g id="line2d_32">
      <g>
       <use xlink:href="#m7d0a9a6fd8" x="1095.25713" y="173.08" style="stroke: #000000; stroke-width: 0.8"/>
      </g>
     </g>
     <g id="text_17">
      <!-- 20 -->
      <g transform="translate(1088.89463 187.678437) scale(0.1 -0.1)">
       <use xlink:href="#DejaVuSans-32"/>
       <use xlink:href="#DejaVuSans-30" x="63.623047"/>
      </g>
     </g>
    </g>
    <g id="text_18">
     <!-- Waktu (s) -->
     <g transform="translate(859.351406 201.356562) scale(0.1 -0.1)">
      <use xlink:href="#DejaVuSans-57"/>
      <use xlink:href="#DejaVuSans-61" x="92.501953"/>
      <use xlink:href="#DejaVuSans-6b" x="153.78125"/>
      <use xlink:href="#DejaVuSans-74" x="211.691406"/>
      <use xlink:href="#DejaVuSans-75" x="250.900391"/>
      <use xlink:href="#DejaVuSans-20" x="314.279297"/>
      <use xlink:href="#DejaVuSans-28" x="346.066406"/>
      <use xlink:href="#DejaVuSans-73" x="385.080078"/>
      <use xlink:href="#DejaVuSans-29" x="437.179688"/>
     </g>
    </g>
   </g>
   <g id="matplotlib.axis_4">
    <g id="ytick_6">
     <g id="line2d_33">
      <path d="M 625.12 143.881332 
L 1141.2 143.881332 
" clip-path="url(#p9046965c22)" style="fill: none; stroke: #b0b0b0; stroke-width: 0.8; stroke-linecap: square"/>
     </g>
     <g id="line2d_34">
      <g>
       <use xlink:href="#mc6d661575c" x="625.12" y="143.881332" style="stroke: #000000; stroke-width: 0.8"/>
      </g>
     </g>
     <g id="text_19">
      <!-- −5 -->
      <g transform="translate(603.377813 147.68055) scale(0.1 -0.1)">
       <use xlink:href="#DejaVuSans-2212"/>
       <use xlink:href="#DejaVuSans-35" x="83.789062"/>
      </g>
     </g>
    </g>
    <g id="ytick_7">
     <g id="line2d_35">
      <path d="M 625.12 104.54381 
L 1141.2 104.54381 
" clip-path="url(#p9046965c22)" style="fill: none; stroke: #b0b0b0; stroke-width: 0.8; stroke-linecap: square"/>
     </g>
     <g id="line2d_36">
      <g>
       <use xlink:href="#mc6d661575c" x="625.12" y="104.54381" style="stroke: #000000; stroke-width: 0.8"/>
      </g>
     </g>
     <g id="text_20">
      <!-- 0 -->
      <g transform="translate(611.7575 108.343029) scale(0.1 -0.1)">
       <use xlink:href="#DejaVuSans-30"/>
      </g>
     </g>
    </g>
    <g id="ytick_8">
     <g id="line2d_37">
      <path d="M 625.12 65.206289 
L 1141.2 65.206289 
" clip-path="url(#p9046965c22)" style="fill: none; stroke: #b0b0b0; stroke-width: 0.8; stroke-linecap: square"/>
     </g>
     <g id="line2d_38">
      <g>
       <use xlink:href="#mc6d661575c" x="625.12" y="65.206289" style="stroke: #000000; stroke-width: 0.8"/>
      </g>
     </g>
     <g id="text_21">
      <!-- 5 -->
      <g transform="translate(611.7575 69.005508) scale(0.1 -0.1)">
       <use xlink:href="#DejaVuSans-35"/>
      </g>
     </g>
    </g>
   </g>
   <g id="line2d_39">
    <path d="M 648.589497 166.783636 
L 648.594614 166.783636 
L 648.698667 104.54381 
L 686.540452 104.54381 
L 686.57272 98.297012 
L 687.283414 98.297012 
L 687.354783 91.947936 
L 688.166356 91.947936 
L 688.269886 85.457245 
L 688.890053 85.457245 
L 688.987913 78.927217 
L 689.67874 78.927217 
L 690.129652 73.058058 
L 690.733817 73.058058 
L 690.932769 67.598011 
L 691.564027 67.598011 
L 691.783634 61.20173 
L 692.495947 61.20173 
L 692.580574 54.663834 
L 693.09982 54.663834 
L 693.319336 48.14954 
L 693.880727 48.14954 
L 694.164673 41.603777 
L 694.874862 41.603777 
L 695.156849 41.847669 
L 695.710141 41.847669 
L 696.005376 42.63442 
L 696.603104 42.63442 
L 696.831842 42.783902 
L 698.262736 42.838975 
L 698.594361 42.154502 
L 699.322371 42.154502 
L 699.331673 47.61455 
L 700.076186 47.61455 
L 700.132666 48.015792 
L 700.830309 48.015792 
L 700.912274 54.545821 
L 701.546355 54.545821 
L 701.832814 61.060115 
L 702.356612 61.060115 
L 702.63926 67.605878 
L 703.124218 67.605878 
L 703.464044 67.165298 
L 703.930914 67.165298 
L 704.154578 66.386415 
L 706.760261 66.441487 
L 706.812168 67.487865 
L 707.547409 67.487865 
L 707.953108 60.973572 
L 708.418258 60.973572 
L 708.799942 60.454317 
L 709.360343 60.454317 
L 709.635642 53.932156 
L 710.391517 53.932156 
L 710.657082 47.402127 
L 711.186349 47.402127 
L 711.502979 40.879966 
L 712.103162 40.879966 
L 712.349009 41.029449 
L 712.798792 41.029449 
L 713.312957 40.856364 
L 713.533442 40.856364 
L 713.870536 41.155329 
L 714.561459 41.155329 
L 714.785698 41.879139 
L 715.324752 41.879139 
L 715.707474 42.075827 
L 716.125329 42.075827 
L 716.426336 43.57852 
L 716.938649 43.57852 
L 717.159059 45.482456 
L 717.879626 45.482456 
L 717.999999 47.685357 
L 718.59852 47.685357 
L 718.849905 50.155754 
L 719.589124 50.155754 
L 719.832288 53.011658 
L 720.301091 53.011658 
L 720.614819 55.883297 
L 721.288048 55.883297 
L 721.645717 56.079984 
L 722.069232 56.079984 
L 722.274387 55.725947 
L 722.784516 55.725947 
L 723.00572 54.844786 
L 723.476265 54.844786 
L 723.723379 54.034433 
L 724.261443 54.034433 
L 724.505165 53.302755 
L 725.088404 53.302755 
L 725.36144 51.485362 
L 726.129999 51.485362 
L 726.140399 49.274593 
L 726.872083 49.274593 
L 726.958942 46.772727 
L 727.606553 46.772727 
L 727.71838 44.420343 
L 728.341475 44.420343 
L 728.458802 42.233177 
L 729.112659 42.233177 
L 729.30275 43.271687 
L 729.841697 43.271687 
L 730.086629 43.602123 
L 730.600155 43.602123 
L 731.229321 43.751605 
L 731.449455 43.751605 
L 731.742325 43.350362 
L 732.393099 43.350362 
L 732.637956 42.563612 
L 733.240626 42.563612 
L 733.602932 42.831107 
L 734.276826 42.831107 
L 734.372317 43.554918 
L 735.02325 43.554918 
L 735.159172 44.310198 
L 735.784147 44.310198 
L 735.803875 43.822413 
L 736.52237 43.822413 
L 736.561998 42.925517 
L 737.262883 42.925517 
L 737.367809 48.196745 
L 738.026634 48.196745 
L 738.149387 48.472108 
L 739.399519 48.36983 
L 740.074733 48.346228 
L 740.970657 48.361963 
L 741.282447 48.031527 
L 741.767209 48.031527 
L 742.130421 47.33132 
L 742.5704 47.33132 
L 742.84063 46.631112 
L 743.490158 46.631112 
L 743.714813 47.480802 
L 745.190498 47.535875 
L 745.46659 41.084521 
L 746.230245 41.084521 
L 746.301523 46.930077 
L 746.942457 46.930077 
L 747.062101 53.4129 
L 747.689067 53.4129 
L 747.891501 59.966531 
L 748.420597 59.966531 
L 748.674538 66.46509 
L 749.204385 66.46509 
L 749.522448 67.778963 
L 750.009483 67.778963 
L 750.216124 67.952048 
L 751.437869 67.991386 
L 751.822838 67.110225 
L 752.448398 67.110225 
L 752.670167 67.424925 
L 753.275334 67.424925 
L 753.475622 68.125133 
L 757.358854 68.125133 
L 757.721703 73.325554 
L 758.212727 73.325554 
L 758.457099 79.651027 
L 758.899885 79.651027 
L 759.240105 86.118115 
L 759.866123 86.118115 
L 760.087386 92.663879 
L 760.715806 92.663879 
L 760.933501 98.792665 
L 761.859755 98.792665 
L 761.862689 104.54381 
L 1117.741818 104.54381 
L 1117.741818 104.54381 
" clip-path="url(#p9046965c22)" style="fill: none; stroke: #ff7f0e; stroke-width: 1.5; stroke-linecap: square"/>
   </g>
   <g id="patch_9">
    <path d="M 625.12 173.08 
L 625.12 34.56 
" style="fill: none; stroke: #000000; stroke-width: 0.8; stroke-linejoin: miter; stroke-linecap: square"/>
   </g>
   <g id="patch_10">
    <path d="M 1141.2 173.08 
L 1141.2 34.56 
" style="fill: none; stroke: #000000; stroke-width: 0.8; stroke-linejoin: miter; stroke-linecap: square"/>
   </g>
   <g id="patch_11">
    <path d="M 625.12 173.08 
L 1141.2 173.08 
" style="fill: none; stroke: #000000; stroke-width: 0.8; stroke-linejoin: miter; stroke-linecap: square"/>
   </g>
   <g id="patch_12">
    <path d="M 625.12 34.56 
L 1141.2 34.56 
" style="fill: none; stroke: #000000; stroke-width: 0.8; stroke-linejoin: miter; stroke-linecap: square"/>
   </g>
   <g id="legend_2">
    <g id="patch_13">
     <path d="M 965.273438 57.238125 
L 1134.2 57.238125 
Q 1136.2 57.238125 1136.2 55.238125 
L 1136.2 41.56 
Q 1136.2 39.56 1134.2 39.56 
L 965.273438 39.56 
Q 963.273438 39.56 963.273438 41.56 
L 963.273438 55.238125 
Q 963.273438 57.238125 965.273438 57.238125 
z
" style="fill: #ffffff; opacity: 0.8; stroke: #cccccc; stroke-linejoin: miter"/>
    </g>
    <g id="line2d_40">
     <path d="M 967.273438 47.658438 
L 977.273438 47.658438 
L 987.273438 47.658438 
" style="fill: none; stroke: #ff7f0e; stroke-width: 1.5; stroke-linecap: square"/>
    </g>
    <g id="text_22">
     <!-- Tegangan motor angkut (V) -->
     <g transform="translate(995.273438 51.158438) scale(0.1 -0.1)">
      <use xlink:href="#DejaVuSans-54"/>
      <use xlink:href="#DejaVuSans-65" x="44.083984"/>
      <use xlink:href="#DejaVuSans-67" x="105.607422"/>
      <use xlink:href="#DejaVuSans-61" x="169.083984"/>
      <use xlink:href="#DejaVuSans-6e" x="230.363281"/>
      <use xlink:href="#DejaVuSans-67" x="293.742188"/>
      <use xlink:href="#DejaVuSans-61" x="357.21875"/>
      <use xlink:href="#DejaVuSans-6e" x="418.498047"/>
      <use xlink:href="#DejaVuSans-20" x="481.876953"/>
      <use xlink:href="#DejaVuSans-6d" x="513.664062"/>
      <use xlink:href="#DejaVuSans-6f" x="611.076172"/>
      <use xlink:href="#DejaVuSans-74" x="672.257812"/>
      <use xlink:href="#DejaVuSans-6f" x="711.466797"/>
      <use xlink:href="#DejaVuSans-72" x="772.648438"/>
      <use xlink:href="#DejaVuSans-20" x="813.761719"/>
      <use xlink:href="#DejaVuSans-61" x="845.548828"/>
      <use xlink:href="#DejaVuSans-6e" x="906.828125"/>
      <use xlink:href="#DejaVuSans-67" x="970.207031"/>
      <use xlink:href="#DejaVuSans-6b" x="1033.683594"/>
      <use xlink:href="#DejaVuSans-75" x="1088.46875"/>
      <use xlink:href="#DejaVuSans-74" x="1151.847656"/>
      <use xlink:href="#DejaVuSans-20" x="1191.056641"/>
      <use xlink:href="#DejaVuSans-28" x="1222.84375"/>
      <use xlink:href="#DejaVuSans-56" x="1261.857422"/>
      <use xlink:href="#DejaVuSans-29" x="1330.265625"/>
     </g>
    </g>
   </g>
  </g>
  <g id="axes_3">
   <g id="patch_14">
    <path d="M 54.52 353.56 
L 570.6 353.56 
L 570.6 215.04 
L 54.52 215.04 
z
" style="fill: #ffffff"/>
   </g>
   <g id="PathCollection_3">
    <g clip-path="url(#p4e2d904a69)">
     <use xlink:href="#m592681eb73" x="77.978182" y="347.263636" style="fill: #1f77b4; fill-opacity: 0; stroke: #1f77b4; stroke-opacity: 0"/>
    </g>
   </g>
   <g id="matplotlib.axis_5">
    <g id="xtick_11">
     <g id="line2d_41">
      <path d="M 77.978182 353.56 
L 77.978182 215.04 
" clip-path="url(#p4e2d904a69)" style="fill: none; stroke: #b0b0b0; stroke-width: 0.8; stroke-linecap: square"/>
     </g>
     <g id="line2d_42">
      <g>
       <use xlink:href="#m7d0a9a6fd8" x="77.978182" y="353.56" style="stroke: #000000; stroke-width: 0.8"/>
      </g>
     </g>
     <g id="text_23">
      <!-- 0 -->
      <g transform="translate(74.796932 368.158437) scale(0.1 -0.1)">
       <use xlink:href="#DejaVuSans-30"/>
      </g>
     </g>
    </g>
    <g id="xtick_12">
     <g id="line2d_43">
      <path d="M 189.647919 353.56 
L 189.647919 215.04 
" clip-path="url(#p4e2d904a69)" style="fill: none; stroke: #b0b0b0; stroke-width: 0.8; stroke-linecap: square"/>
     </g>
     <g id="line2d_44">
      <g>
       <use xlink:href="#m7d0a9a6fd8" x="189.647919" y="353.56" style="stroke: #000000; stroke-width: 0.8"/>
      </g>
     </g>
     <g id="text_24">
      <!-- 5 -->
      <g transform="translate(186.466669 368.158437) scale(0.1 -0.1)">
       <use xlink:href="#DejaVuSans-35"/>
      </g>
     </g>
    </g>
    <g id="xtick_13">
     <g id="line2d_45">
      <path d="M 301.317656 353.56 
L 301.317656 215.04 
" clip-path="url(#p4e2d904a69)" style="fill: none; stroke: #b0b0b0; stroke-width: 0.8; stroke-linecap: square"/>
     </g>
     <g id="line2d_46">
      <g>
       <use xlink:href="#m7d0a9a6fd8" x="301.317656" y="353.56" style="stroke: #000000; stroke-width: 0.8"/>
      </g>
     </g>
     <g id="text_25">
      <!-- 10 -->
      <g transform="translate(294.955156 368.158437) scale(0.1 -0.1)">
       <use xlink:href="#DejaVuSans-31"/>
       <use xlink:href="#DejaVuSans-30" x="63.623047"/>
      </g>
     </g>
    </g>
    <g id="xtick_14">
     <g id="line2d_47">
      <path d="M 412.987393 353.56 
L 412.987393 215.04 
" clip-path="url(#p4e2d904a69)" style="fill: none; stroke: #b0b0b0; stroke-width: 0.8; stroke-linecap: square"/>
     </g>
     <g id="line2d_48">
      <g>
       <use xlink:href="#m7d0a9a6fd8" x="412.987393" y="353.56" style="stroke: #000000; stroke-width: 0.8"/>
      </g>
     </g>
     <g id="text_26">
      <!-- 15 -->
      <g transform="translate(406.624893 368.158437) scale(0.1 -0.1)">
       <use xlink:href="#DejaVuSans-31"/>
       <use xlink:href="#DejaVuSans-35" x="63.623047"/>
      </g>
     </g>
    </g>
    <g id="xtick_15">
     <g id="line2d_49">
      <path d="M 524.65713 353.56 
L 524.65713 215.04 
" clip-path="url(#p4e2d904a69)" style="fill: none; stroke: #b0b0b0; stroke-width: 0.8; stroke-linecap: square"/>
     </g>
     <g id="line2d_50">
      <g>
       <use xlink:href="#m7d0a9a6fd8" x="524.65713" y="353.56" style="stroke: #000000; stroke-width: 0.8"/>
      </g>
     </g>
     <g id="text_27">
      <!-- 20 -->
      <g transform="translate(518.29463 368.158437) scale(0.1 -0.1)">
       <use xlink:href="#DejaVuSans-32"/>
       <use xlink:href="#DejaVuSans-30" x="63.623047"/>
      </g>
     </g>
    </g>
    <g id="text_28">
     <!-- Waktu (s) -->
     <g transform="translate(288.751406 381.836563) scale(0.1 -0.1)">
      <use xlink:href="#DejaVuSans-57"/>
      <use xlink:href="#DejaVuSans-61" x="92.501953"/>
      <use xlink:href="#DejaVuSans-6b" x="153.78125"/>
      <use xlink:href="#DejaVuSans-74" x="211.691406"/>
      <use xlink:href="#DejaVuSans-75" x="250.900391"/>
      <use xlink:href="#DejaVuSans-20" x="314.279297"/>
      <use xlink:href="#DejaVuSans-28" x="346.066406"/>
      <use xlink:href="#DejaVuSans-73" x="385.080078"/>
      <use xlink:href="#DejaVuSans-29" x="437.179688"/>
     </g>
    </g>
   </g>
   <g id="matplotlib.axis_6">
    <g id="ytick_9">
     <g id="line2d_51">
      <path d="M 54.52 347.263636 
L 570.6 347.263636 
" clip-path="url(#p4e2d904a69)" style="fill: none; stroke: #b0b0b0; stroke-width: 0.8; stroke-linecap: square"/>
     </g>
     <g id="line2d_52">
      <g>
       <use xlink:href="#mc6d661575c" x="54.52" y="347.263636" style="stroke: #000000; stroke-width: 0.8"/>
      </g>
     </g>
     <g id="text_29">
      <!-- 0.0 -->
      <g transform="translate(31.616875 351.062855) scale(0.1 -0.1)">
       <use xlink:href="#DejaVuSans-30"/>
       <use xlink:href="#DejaVuSans-2e" x="63.623047"/>
       <use xlink:href="#DejaVuSans-30" x="95.410156"/>
      </g>
     </g>
    </g>
    <g id="ytick_10">
     <g id="line2d_53">
      <path d="M 54.52 313.054494 
L 570.6 313.054494 
" clip-path="url(#p4e2d904a69)" style="fill: none; stroke: #b0b0b0; stroke-width: 0.8; stroke-linecap: square"/>
     </g>
     <g id="line2d_54">
      <g>
       <use xlink:href="#mc6d661575c" x="54.52" y="313.054494" style="stroke: #000000; stroke-width: 0.8"/>
      </g>
     </g>
     <g id="text_30">
      <!-- 0.2 -->
      <g transform="translate(31.616875 316.853713) scale(0.1 -0.1)">
       <use xlink:href="#DejaVuSans-30"/>
       <use xlink:href="#DejaVuSans-2e" x="63.623047"/>
       <use xlink:href="#DejaVuSans-32" x="95.410156"/>
      </g>
     </g>
    </g>
    <g id="ytick_11">
     <g id="line2d_55">
      <path d="M 54.52 278.845352 
L 570.6 278.845352 
" clip-path="url(#p4e2d904a69)" style="fill: none; stroke: #b0b0b0; stroke-width: 0.8; stroke-linecap: square"/>
     </g>
     <g id="line2d_56">
      <g>
       <use xlink:href="#mc6d661575c" x="54.52" y="278.845352" style="stroke: #000000; stroke-width: 0.8"/>
      </g>
     </g>
     <g id="text_31">
      <!-- 0.4 -->
      <g transform="translate(31.616875 282.644571) scale(0.1 -0.1)">
       <use xlink:href="#DejaVuSans-30"/>
       <use xlink:href="#DejaVuSans-2e" x="63.623047"/>
       <use xlink:href="#DejaVuSans-34" x="95.410156"/>
      </g>
     </g>
    </g>
    <g id="ytick_12">
     <g id="line2d_57">
      <path d="M 54.52 244.63621 
L 570.6 244.63621 
" clip-path="url(#p4e2d904a69)" style="fill: none; stroke: #b0b0b0; stroke-width: 0.8; stroke-linecap: square"/>
     </g>
     <g id="line2d_58">
      <g>
       <use xlink:href="#mc6d661575c" x="54.52" y="244.63621" style="stroke: #000000; stroke-width: 0.8"/>
      </g>
     </g>
     <g id="text_32">
      <!-- 0.6 -->
      <g transform="translate(31.616875 248.435429) scale(0.1 -0.1)">
       <defs>
        <path id="DejaVuSans-36" d="M 2113 2584 
Q 1688 2584 1439 2293 
Q 1191 2003 1191 1497 
Q 1191 994 1439 701 
Q 1688 409 2113 409 
Q 2538 409 2786 701 
Q 3034 994 3034 1497 
Q 3034 2003 2786 2293 
Q 2538 2584 2113 2584 
z
M 3366 4563 
L 3366 3988 
Q 3128 4100 2886 4159 
Q 2644 4219 2406 4219 
Q 1781 4219 1451 3797 
Q 1122 3375 1075 2522 
Q 1259 2794 1537 2939 
Q 1816 3084 2150 3084 
Q 2853 3084 3261 2657 
Q 3669 2231 3669 1497 
Q 3669 778 3244 343 
Q 2819 -91 2113 -91 
Q 1303 -91 875 529 
Q 447 1150 447 2328 
Q 447 3434 972 4092 
Q 1497 4750 2381 4750 
Q 2619 4750 2861 4703 
Q 3103 4656 3366 4563 
z
" transform="scale(0.015625)"/>
       </defs>
       <use xlink:href="#DejaVuSans-30"/>
       <use xlink:href="#DejaVuSans-2e" x="63.623047"/>
       <use xlink:href="#DejaVuSans-36" x="95.410156"/>
      </g>
     </g>
    </g>
   </g>
   <g id="line2d_59">
    <path d="M 77.989497 221.336364 
L 547.141818 221.336364 
L 547.141818 221.336364 
" clip-path="url(#p4e2d904a69)" style="fill: none; stroke: #2ca02c; stroke-width: 1.5; stroke-linecap: square"/>
   </g>
   <g id="patch_15">
    <path d="M 54.52 353.56 
L 54.52 215.04 
" style="fill: none; stroke: #000000; stroke-width: 0.8; stroke-linejoin: miter; stroke-linecap: square"/>
   </g>
   <g id="patch_16">
    <path d="M 570.6 353.56 
L 570.6 215.04 
" style="fill: none; stroke: #000000; stroke-width: 0.8; stroke-linejoin: miter; stroke-linecap: square"/>
   </g>
   <g id="patch_17">
    <path d="M 54.52 353.56 
L 570.6 353.56 
" style="fill: none; stroke: #000000; stroke-width: 0.8; stroke-linejoin: miter; stroke-linecap: square"/>
   </g>
   <g id="patch_18">
    <path d="M 54.52 215.04 
L 570.6 215.04 
" style="fill: none; stroke: #000000; stroke-width: 0.8; stroke-linejoin: miter; stroke-linecap: square"/>
   </g>
   <g id="legend_3">
    <g id="patch_19">
     <path d="M 460.457813 348.56 
L 563.6 348.56 
Q 565.6 348.56 565.6 346.56 
L 565.6 332.881875 
Q 565.6 330.881875 563.6 330.881875 
L 460.457813 330.881875 
Q 458.457813 330.881875 458.457813 332.881875 
L 458.457813 346.56 
Q 458.457813 348.56 460.457813 348.56 
z
" style="fill: #ffffff; opacity: 0.8; stroke: #cccccc; stroke-linejoin: miter"/>
    </g>
    <g id="line2d_60">
     <path d="M 462.457813 338.980312 
L 472.457813 338.980312 
L 482.457813 338.980312 
" style="fill: none; stroke: #2ca02c; stroke-width: 1.5; stroke-linecap: square"/>
    </g>
    <g id="text_33">
     <!-- Posisi troli (m) -->
     <g transform="translate(490.457813 342.480312) scale(0.1 -0.1)">
      <defs>
       <path id="DejaVuSans-50" d="M 1259 4147 
L 1259 2394 
L 2053 2394 
Q 2494 2394 2734 2622 
Q 2975 2850 2975 3272 
Q 2975 3691 2734 3919 
Q 2494 4147 2053 4147 
L 1259 4147 
z
M 628 4666 
L 2053 4666 
Q 2838 4666 3239 4311 
Q 3641 3956 3641 3272 
Q 3641 2581 3239 2228 
Q 2838 1875 2053 1875 
L 1259 1875 
L 1259 0 
L 628 0 
L 628 4666 
z
" transform="scale(0.015625)"/>
      </defs>
      <use xlink:href="#DejaVuSans-50"/>
      <use xlink:href="#DejaVuSans-6f" x="56.677734"/>
      <use xlink:href="#DejaVuSans-73" x="117.859375"/>
      <use xlink:href="#DejaVuSans-69" x="169.958984"/>
      <use xlink:href="#DejaVuSans-73" x="197.742188"/>
      <use xlink:href="#DejaVuSans-69" x="249.841797"/>
      <use xlink:href="#DejaVuSans-20" x="277.625"/>
      <use xlink:href="#DejaVuSans-74" x="309.412109"/>
      <use xlink:href="#DejaVuSans-72" x="348.621094"/>
      <use xlink:href="#DejaVuSans-6f" x="387.484375"/>
      <use xlink:href="#DejaVuSans-6c" x="448.666016"/>
      <use xlink:href="#DejaVuSans-69" x="476.449219"/>
      <use xlink:href="#DejaVuSans-20" x="504.232422"/>
      <use xlink:href="#DejaVuSans-28" x="536.019531"/>
      <use xlink:href="#DejaVuSans-6d" x="575.033203"/>
      <use xlink:href="#DejaVuSans-29" x="672.445312"/>
     </g>
    </g>
   </g>
  </g>
  <g id="axes_4">
   <g id="patch_20">
    <path d="M 625.12 353.56 
L 1141.2 353.56 
L 1141.2 215.04 
L 625.12 215.04 
z
" style="fill: #ffffff"/>
   </g>
   <g id="PathCollection_4">
    <g clip-path="url(#pac50c8e7c7)">
     <use xlink:href="#m592681eb73" x="648.578182" y="347.263636" style="fill: #1f77b4; fill-opacity: 0; stroke: #1f77b4; stroke-opacity: 0"/>
    </g>
   </g>
   <g id="matplotlib.axis_7">
    <g id="xtick_16">
     <g id="line2d_61">
      <path d="M 648.578182 353.56 
L 648.578182 215.04 
" clip-path="url(#pac50c8e7c7)" style="fill: none; stroke: #b0b0b0; stroke-width: 0.8; stroke-linecap: square"/>
     </g>
     <g id="line2d_62">
      <g>
       <use xlink:href="#m7d0a9a6fd8" x="648.578182" y="353.56" style="stroke: #000000; stroke-width: 0.8"/>
      </g>
     </g>
     <g id="text_34">
      <!-- 0 -->
      <g transform="translate(645.396932 368.158437) scale(0.1 -0.1)">
       <use xlink:href="#DejaVuSans-30"/>
      </g>
     </g>
    </g>
    <g id="xtick_17">
     <g id="line2d_63">
      <path d="M 760.247919 353.56 
L 760.247919 215.04 
" clip-path="url(#pac50c8e7c7)" style="fill: none; stroke: #b0b0b0; stroke-width: 0.8; stroke-linecap: square"/>
     </g>
     <g id="line2d_64">
      <g>
       <use xlink:href="#m7d0a9a6fd8" x="760.247919" y="353.56" style="stroke: #000000; stroke-width: 0.8"/>
      </g>
     </g>
     <g id="text_35">
      <!-- 5 -->
      <g transform="translate(757.066669 368.158437) scale(0.1 -0.1)">
       <use xlink:href="#DejaVuSans-35"/>
      </g>
     </g>
    </g>
    <g id="xtick_18">
     <g id="line2d_65">
      <path d="M 871.917656 353.56 
L 871.917656 215.04 
" clip-path="url(#pac50c8e7c7)" style="fill: none; stroke: #b0b0b0; stroke-width: 0.8; stroke-linecap: square"/>
     </g>
     <g id="line2d_66">
      <g>
       <use xlink:href="#m7d0a9a6fd8" x="871.917656" y="353.56" style="stroke: #000000; stroke-width: 0.8"/>
      </g>
     </g>
     <g id="text_36">
      <!-- 10 -->
      <g transform="translate(865.555156 368.158437) scale(0.1 -0.1)">
       <use xlink:href="#DejaVuSans-31"/>
       <use xlink:href="#DejaVuSans-30" x="63.623047"/>
      </g>
     </g>
    </g>
    <g id="xtick_19">
     <g id="line2d_67">
      <path d="M 983.587393 353.56 
L 983.587393 215.04 
" clip-path="url(#pac50c8e7c7)" style="fill: none; stroke: #b0b0b0; stroke-width: 0.8; stroke-linecap: square"/>
     </g>
     <g id="line2d_68">
      <g>
       <use xlink:href="#m7d0a9a6fd8" x="983.587393" y="353.56" style="stroke: #000000; stroke-width: 0.8"/>
      </g>
     </g>
     <g id="text_37">
      <!-- 15 -->
      <g transform="translate(977.224893 368.158437) scale(0.1 -0.1)">
       <use xlink:href="#DejaVuSans-31"/>
       <use xlink:href="#DejaVuSans-35" x="63.623047"/>
      </g>
     </g>
    </g>
    <g id="xtick_20">
     <g id="line2d_69">
      <path d="M 1095.25713 353.56 
L 1095.25713 215.04 
" clip-path="url(#pac50c8e7c7)" style="fill: none; stroke: #b0b0b0; stroke-width: 0.8; stroke-linecap: square"/>
     </g>
     <g id="line2d_70">
      <g>
       <use xlink:href="#m7d0a9a6fd8" x="1095.25713" y="353.56" style="stroke: #000000; stroke-width: 0.8"/>
      </g>
     </g>
     <g id="text_38">
      <!-- 20 -->
      <g transform="translate(1088.89463 368.158437) scale(0.1 -0.1)">
       <use xlink:href="#DejaVuSans-32"/>
       <use xlink:href="#DejaVuSans-30" x="63.623047"/>
      </g>
     </g>
    </g>
    <g id="text_39">
     <!-- Waktu (s) -->
     <g transform="translate(859.351406 381.836563) scale(0.1 -0.1)">
      <use xlink:href="#DejaVuSans-57"/>
      <use xlink:href="#DejaVuSans-61" x="92.501953"/>
      <use xlink:href="#DejaVuSans-6b" x="153.78125"/>
      <use xlink:href="#DejaVuSans-74" x="211.691406"/>
      <use xlink:href="#DejaVuSans-75" x="250.900391"/>
      <use xlink:href="#DejaVuSans-20" x="314.279297"/>
      <use xlink:href="#DejaVuSans-28" x="346.066406"/>
      <use xlink:href="#DejaVuSans-73" x="385.080078"/>
      <use xlink:href="#DejaVuSans-29" x="437.179688"/>
     </g>
    </g>
   </g>
   <g id="matplotlib.axis_8">
    <g id="ytick_13">
     <g id="line2d_71">
      <path d="M 625.12 347.263636 
L 1141.2 347.263636 
" clip-path="url(#pac50c8e7c7)" style="fill: none; stroke: #b0b0b0; stroke-width: 0.8; stroke-linecap: square"/>
     </g>
     <g id="line2d_72">
      <g>
       <use xlink:href="#mc6d661575c" x="625.12" y="347.263636" style="stroke: #000000; stroke-width: 0.8"/>
      </g>
     </g>
     <g id="text_40">
      <!-- 0.0 -->
      <g transform="translate(602.216875 351.062855) scale(0.1 -0.1)">
       <use xlink:href="#DejaVuSans-30"/>
       <use xlink:href="#DejaVuSans-2e" x="63.623047"/>
       <use xlink:href="#DejaVuSans-30" x="95.410156"/>
      </g>
     </g>
    </g>
    <g id="ytick_14">
     <g id="line2d_73">
      <path d="M 625.12 309.045951 
L 1141.2 309.045951 
" clip-path="url(#pac50c8e7c7)" style="fill: none; stroke: #b0b0b0; stroke-width: 0.8; stroke-linecap: square"/>
     </g>
     <g id="line2d_74">
      <g>
       <use xlink:href="#mc6d661575c" x="625.12" y="309.045951" style="stroke: #000000; stroke-width: 0.8"/>
      </g>
     </g>
     <g id="text_41">
      <!-- 0.2 -->
      <g transform="translate(602.216875 312.84517) scale(0.1 -0.1)">
       <use xlink:href="#DejaVuSans-30"/>
       <use xlink:href="#DejaVuSans-2e" x="63.623047"/>
       <use xlink:href="#DejaVuSans-32" x="95.410156"/>
      </g>
     </g>
    </g>
    <g id="ytick_15">
     <g id="line2d_75">
      <path d="M 625.12 270.828266 
L 1141.2 270.828266 
" clip-path="url(#pac50c8e7c7)" style="fill: none; stroke: #b0b0b0; stroke-width: 0.8; stroke-linecap: square"/>
     </g>
     <g id="line2d_76">
      <g>
       <use xlink:href="#mc6d661575c" x="625.12" y="270.828266" style="stroke: #000000; stroke-width: 0.8"/>
      </g>
     </g>
     <g id="text_42">
      <!-- 0.4 -->
      <g transform="translate(602.216875 274.627485) scale(0.1 -0.1)">
       <use xlink:href="#DejaVuSans-30"/>
       <use xlink:href="#DejaVuSans-2e" x="63.623047"/>
       <use xlink:href="#DejaVuSans-34" x="95.410156"/>
      </g>
     </g>
    </g>
    <g id="ytick_16">
     <g id="line2d_77">
      <path d="M 625.12 232.610581 
L 1141.2 232.610581 
" clip-path="url(#pac50c8e7c7)" style="fill: none; stroke: #b0b0b0; stroke-width: 0.8; stroke-linecap: square"/>
     </g>
     <g id="line2d_78">
      <g>
       <use xlink:href="#mc6d661575c" x="625.12" y="232.610581" style="stroke: #000000; stroke-width: 0.8"/>
      </g>
     </g>
     <g id="text_43">
      <!-- 0.6 -->
      <g transform="translate(602.216875 236.4098) scale(0.1 -0.1)">
       <use xlink:href="#DejaVuSans-30"/>
       <use xlink:href="#DejaVuSans-2e" x="63.623047"/>
       <use xlink:href="#DejaVuSans-36" x="95.410156"/>
      </g>
     </g>
    </g>
   </g>
   <g id="line2d_79">
    <path d="M 648.589497 272.930239 
L 648.698667 275.2233 
L 687.136002 275.2233 
L 687.354783 275.032211 
L 688.764803 275.032211 
L 688.987913 274.841123 
L 689.459991 274.841123 
L 689.67874 274.458946 
L 690.129652 274.458946 
L 690.394493 274.267858 
L 690.932769 274.267858 
L 691.241093 273.885681 
L 691.783634 273.885681 
L 692.000488 273.694592 
L 692.33994 273.694592 
L 692.580574 273.121327 
L 693.301907 273.121327 
L 693.319336 272.73915 
L 694.101132 272.73915 
L 694.164673 272.165885 
L 694.796358 272.165885 
L 694.874862 271.783708 
L 695.378644 271.783708 
L 695.710141 271.210443 
L 696.248641 271.210443 
L 696.350121 270.828266 
L 697.081114 270.828266 
L 697.117088 270.255001 
L 697.836558 270.255001 
L 697.866041 269.872824 
L 698.525164 269.872824 
L 698.594361 269.299559 
L 699.108995 269.299559 
L 699.331673 268.726293 
L 699.913022 268.726293 
L 700.132666 268.344116 
L 700.670074 268.344116 
L 700.912274 267.770851 
L 701.519065 267.770851 
L 701.546355 267.197586 
L 702.297677 267.197586 
L 702.356612 266.624321 
L 702.882844 266.624321 
L 703.124218 266.242144 
L 703.685232 266.242144 
L 703.778714 265.668878 
L 704.648131 265.668878 
L 704.675634 264.904525 
L 705.22891 264.904525 
L 705.303596 264.331259 
L 706.051841 264.331259 
L 706.071159 263.757994 
L 706.545261 263.757994 
L 706.812168 263.375817 
L 707.192994 263.375817 
L 707.547409 262.802552 
L 708.175851 262.802552 
L 708.418258 262.229287 
L 708.799942 262.229287 
L 709.045427 261.656022 
L 709.607681 261.656022 
L 709.635642 261.082756 
L 710.34517 261.082756 
L 710.391517 260.509491 
L 710.949357 260.509491 
L 711.186349 259.936226 
L 711.773331 259.936226 
L 711.864391 259.36296 
L 712.57467 259.36296 
L 712.798792 258.980784 
L 713.312957 258.980784 
L 713.533442 258.21643 
L 714.162747 258.21643 
L 714.167182 257.643165 
L 714.785698 257.643165 
L 715.009676 257.069899 
L 715.547186 257.069899 
L 715.813007 256.496634 
L 716.350649 256.496634 
L 716.426336 255.923369 
L 717.159059 255.923369 
L 717.377058 255.350103 
L 717.761356 255.350103 
L 717.879626 254.776838 
L 718.519132 254.776838 
L 718.59852 254.394661 
L 719.1226 254.394661 
L 719.346168 253.821396 
L 720.058668 253.821396 
L 720.15886 253.439219 
L 720.840491 253.439219 
L 720.900113 252.865954 
L 721.513746 252.865954 
L 721.732235 252.483777 
L 722.274387 252.483777 
L 722.40967 252.1016 
L 723.00572 252.1016 
L 723.130944 251.528335 
L 723.723379 251.528335 
L 723.92117 251.146158 
L 724.505165 251.146158 
L 724.725949 250.763981 
L 725.30783 250.763981 
L 725.36144 250.190716 
L 725.864306 250.190716 
L 726.140399 249.808539 
L 726.717546 249.808539 
L 726.958942 249.235274 
L 727.477048 249.235274 
L 727.606553 248.662009 
L 728.190106 248.662009 
L 728.341475 248.088743 
L 729.017457 248.088743 
L 729.112659 247.515478 
L 729.780904 247.515478 
L 729.841697 246.942213 
L 730.335138 246.942213 
L 730.600155 246.368947 
L 731.229321 246.368947 
L 731.335541 245.986771 
L 732.011778 245.986771 
L 732.086203 245.413505 
L 732.637956 245.413505 
L 732.855587 244.84024 
L 733.464689 244.84024 
L 733.682118 244.266975 
L 734.110042 244.266975 
L 734.372317 243.884798 
L 734.887728 243.884798 
L 735.02325 243.311533 
L 735.585951 243.311533 
L 735.803875 242.738267 
L 736.361827 242.738267 
L 736.561998 242.35609 
L 737.147212 242.35609 
L 737.367809 241.782825 
L 737.904632 241.782825 
L 738.026634 241.20956 
L 738.644091 241.20956 
L 738.778457 240.636295 
L 739.311377 240.636295 
L 739.399519 240.063029 
L 740.074733 240.063029 
L 740.269116 239.489764 
L 740.922744 239.489764 
L 740.970657 238.916499 
L 741.522634 238.916499 
L 741.767209 238.343234 
L 742.350895 238.343234 
L 742.5704 237.769968 
L 743.134917 237.769968 
L 743.163235 237.196703 
L 743.714813 237.196703 
L 743.933045 236.623438 
L 744.583713 236.623438 
L 744.804576 236.050172 
L 745.43281 236.050172 
L 745.46659 235.476907 
L 746.060032 235.476907 
L 746.301523 234.903642 
L 746.842398 234.903642 
L 746.942457 234.330377 
L 747.579871 234.330377 
L 747.689067 233.757111 
L 748.362434 233.757111 
L 748.420597 233.183846 
L 748.942809 233.183846 
L 749.204385 232.801669 
L 749.7473 232.801669 
L 749.883344 232.228404 
L 750.486284 232.228404 
L 750.681503 231.655139 
L 751.245136 231.655139 
L 751.437869 231.081873 
L 752.045336 231.081873 
L 752.111741 230.508608 
L 752.670167 230.508608 
L 752.889246 230.126431 
L 753.475622 230.126431 
L 753.602347 229.553166 
L 754.212274 229.553166 
L 754.408452 228.979901 
L 755.017788 228.979901 
L 755.085509 228.406635 
L 755.799323 228.406635 
L 755.826586 228.024459 
L 756.40253 228.024459 
L 756.6876 227.451193 
L 757.117655 227.451193 
L 757.358854 227.069016 
L 757.967604 227.069016 
L 758.067184 226.495751 
L 758.680343 226.495751 
L 758.899885 226.113574 
L 759.484525 226.113574 
L 759.553732 225.731397 
L 760.087386 225.731397 
L 760.318563 225.349221 
L 760.933501 225.349221 
L 761.179231 225.158132 
L 761.63387 225.158132 
L 761.862689 224.775955 
L 762.410241 224.775955 
L 762.581716 224.393778 
L 763.212735 224.393778 
L 763.313369 224.20269 
L 764.023158 224.20269 
L 764.037892 224.011602 
L 764.574438 224.011602 
L 764.79791 223.820513 
L 765.358657 223.820513 
L 765.666325 223.629425 
L 766.136614 223.629425 
L 766.358825 223.438336 
L 767.0338 223.438336 
L 767.059348 223.056159 
L 768.507744 223.056159 
L 768.537531 222.865071 
L 769.134338 222.865071 
L 769.332139 222.673983 
L 770.030618 222.673983 
L 770.045176 222.482894 
L 770.561009 222.482894 
L 770.792117 222.291806 
L 772.150193 222.291806 
L 772.37022 222.100717 
L 773.689776 222.100717 
L 773.741401 221.909629 
L 775.119642 221.909629 
L 775.338226 221.71854 
L 777.241703 221.71854 
L 777.484558 221.527452 
L 784.72339 221.527452 
L 784.942368 221.336364 
L 821.178318 221.336364 
L 821.44432 221.527452 
L 822.003512 221.527452 
L 822.203171 221.336364 
L 822.677156 221.336364 
L 822.895229 221.527452 
L 832.412597 221.527452 
L 832.634605 221.336364 
L 836.924031 221.336364 
L 836.993131 221.527452 
L 837.575236 221.527452 
L 837.794838 221.336364 
L 846.556858 221.336364 
L 846.654585 221.527452 
L 854.103449 221.527452 
L 854.128337 221.336364 
L 861.408107 221.336364 
L 861.606718 221.527452 
L 864.335362 221.527452 
L 864.644207 221.336364 
L 871.81625 221.336364 
L 871.852352 221.527452 
L 873.289555 221.527452 
L 873.511366 221.336364 
L 874.096134 221.336364 
L 874.338882 221.527452 
L 875.655547 221.527452 
L 875.708481 221.336364 
L 888.213887 221.336364 
L 888.335954 221.527452 
L 900.880716 221.527452 
L 900.896382 221.336364 
L 920.244741 221.336364 
L 920.266349 221.527452 
L 936.50594 221.527452 
L 936.792544 221.336364 
L 944.123032 221.336364 
L 944.179086 221.527452 
L 944.792826 221.527452 
L 944.854605 221.336364 
L 945.549804 221.336364 
L 945.600113 221.527452 
L 947.741343 221.527452 
L 947.895603 221.336364 
L 948.542373 221.336364 
L 948.649876 221.527452 
L 949.257455 221.527452 
L 949.383078 221.336364 
L 950.061797 221.336364 
L 950.117036 221.527452 
L 952.211994 221.527452 
L 952.407847 221.336364 
L 964.159066 221.336364 
L 964.398688 221.527452 
L 987.83593 221.527452 
L 988.086346 221.336364 
L 1010.996956 221.336364 
L 1011.218842 221.527452 
L 1020.64727 221.527452 
L 1020.869017 221.336364 
L 1022.835907 221.336364 
L 1023.062489 221.527452 
L 1029.4256 221.527452 
L 1029.643077 221.336364 
L 1037.804318 221.336364 
L 1038.025378 221.527452 
L 1038.559746 221.527452 
L 1038.783549 221.336364 
L 1046.825035 221.336364 
L 1046.899305 221.527452 
L 1063.178854 221.527452 
L 1063.264163 221.336364 
L 1073.584191 221.336364 
L 1073.829756 221.527452 
L 1076.452229 221.527452 
L 1076.68766 221.336364 
L 1077.898186 221.336364 
L 1078.277202 221.527452 
L 1079.435016 221.527452 
L 1079.657306 221.336364 
L 1083.97292 221.336364 
L 1084.169986 221.527452 
L 1098.84509 221.527452 
L 1099.070442 221.336364 
L 1101.800353 221.336364 
L 1102.041062 221.527452 
L 1102.599727 221.527452 
L 1102.82181 221.336364 
L 1117.741818 221.336364 
L 1117.741818 221.336364 
" clip-path="url(#pac50c8e7c7)" style="fill: none; stroke: #d62728; stroke-width: 1.5; stroke-linecap: square"/>
   </g>
   <g id="patch_21">
    <path d="M 625.12 353.56 
L 625.12 215.04 
" style="fill: none; stroke: #000000; stroke-width: 0.8; stroke-linejoin: miter; stroke-linecap: square"/>
   </g>
   <g id="patch_22">
    <path d="M 1141.2 353.56 
L 1141.2 215.04 
" style="fill: none; stroke: #000000; stroke-width: 0.8; stroke-linejoin: miter; stroke-linecap: square"/>
   </g>
   <g id="patch_23">
    <path d="M 625.12 353.56 
L 1141.2 353.56 
" style="fill: none; stroke: #000000; stroke-width: 0.8; stroke-linejoin: miter; stroke-linecap: square"/>
   </g>
   <g id="patch_24">
    <path d="M 625.12 215.04 
L 1141.2 215.04 
" style="fill: none; stroke: #000000; stroke-width: 0.8; stroke-linejoin: miter; stroke-linecap: square"/>
   </g>
   <g id="legend_4">
    <g id="patch_25">
     <path d="M 1023.057813 348.56 
L 1134.2 348.56 
Q 1136.2 348.56 1136.2 346.56 
L 1136.2 332.881875 
Q 1136.2 330.881875 1134.2 330.881875 
L 1023.057813 330.881875 
Q 1021.057813 330.881875 1021.057813 332.881875 
L 1021.057813 346.56 
Q 1021.057813 348.56 1023.057813 348.56 
z
" style="fill: #ffffff; opacity: 0.8; stroke: #cccccc; stroke-linejoin: miter"/>
    </g>
    <g id="line2d_80">
     <path d="M 1025.057813 338.980312 
L 1035.057813 338.980312 
L 1045.057813 338.980312 
" style="fill: none; stroke: #d62728; stroke-width: 1.5; stroke-linecap: square"/>
    </g>
    <g id="text_44">
     <!-- Panjang tali (m) -->
     <g transform="translate(1053.057813 342.480312) scale(0.1 -0.1)">
      <defs>
       <path id="DejaVuSans-6a" d="M 603 3500 
L 1178 3500 
L 1178 -63 
Q 1178 -731 923 -1031 
Q 669 -1331 103 -1331 
L -116 -1331 
L -116 -844 
L 38 -844 
Q 366 -844 484 -692 
Q 603 -541 603 -63 
L 603 3500 
z
M 603 4863 
L 1178 4863 
L 1178 4134 
L 603 4134 
L 603 4863 
z
" transform="scale(0.015625)"/>
      </defs>
      <use xlink:href="#DejaVuSans-50"/>
      <use xlink:href="#DejaVuSans-61" x="55.802734"/>
      <use xlink:href="#DejaVuSans-6e" x="117.082031"/>
      <use xlink:href="#DejaVuSans-6a" x="180.460938"/>
      <use xlink:href="#DejaVuSans-61" x="208.244141"/>
      <use xlink:href="#DejaVuSans-6e" x="269.523438"/>
      <use xlink:href="#DejaVuSans-67" x="332.902344"/>
      <use xlink:href="#DejaVuSans-20" x="396.378906"/>
      <use xlink:href="#DejaVuSans-74" x="428.166016"/>
      <use xlink:href="#DejaVuSans-61" x="467.375"/>
      <use xlink:href="#DejaVuSans-6c" x="528.654297"/>
      <use xlink:href="#DejaVuSans-69" x="556.4375"/>
      <use xlink:href="#DejaVuSans-20" x="584.220703"/>
      <use xlink:href="#DejaVuSans-28" x="616.007812"/>
      <use xlink:href="#DejaVuSans-6d" x="655.021484"/>
      <use xlink:href="#DejaVuSans-29" x="752.433594"/>
     </g>
    </g>
   </g>
  </g>
  <g id="axes_5">
   <g id="patch_26">
    <path d="M 54.52 534.04 
L 570.6 534.04 
L 570.6 395.52 
L 54.52 395.52 
z
" style="fill: #ffffff"/>
   </g>
   <g id="PathCollection_5">
    <g clip-path="url(#p3c65908f81)">
     <use xlink:href="#m592681eb73" x="77.978182" y="477.372727" style="fill: #1f77b4; fill-opacity: 0; stroke: #1f77b4; stroke-opacity: 0"/>
    </g>
   </g>
   <g id="matplotlib.axis_9">
    <g id="xtick_21">
     <g id="line2d_81">
      <path d="M 77.978182 534.04 
L 77.978182 395.52 
" clip-path="url(#p3c65908f81)" style="fill: none; stroke: #b0b0b0; stroke-width: 0.8; stroke-linecap: square"/>
     </g>
     <g id="line2d_82">
      <g>
       <use xlink:href="#m7d0a9a6fd8" x="77.978182" y="534.04" style="stroke: #000000; stroke-width: 0.8"/>
      </g>
     </g>
     <g id="text_45">
      <!-- 0 -->
      <g transform="translate(74.796932 548.638438) scale(0.1 -0.1)">
       <use xlink:href="#DejaVuSans-30"/>
      </g>
     </g>
    </g>
    <g id="xtick_22">
     <g id="line2d_83">
      <path d="M 189.647919 534.04 
L 189.647919 395.52 
" clip-path="url(#p3c65908f81)" style="fill: none; stroke: #b0b0b0; stroke-width: 0.8; stroke-linecap: square"/>
     </g>
     <g id="line2d_84">
      <g>
       <use xlink:href="#m7d0a9a6fd8" x="189.647919" y="534.04" style="stroke: #000000; stroke-width: 0.8"/>
      </g>
     </g>
     <g id="text_46">
      <!-- 5 -->
      <g transform="translate(186.466669 548.638438) scale(0.1 -0.1)">
       <use xlink:href="#DejaVuSans-35"/>
      </g>
     </g>
    </g>
    <g id="xtick_23">
     <g id="line2d_85">
      <path d="M 301.317656 534.04 
L 301.317656 395.52 
" clip-path="url(#p3c65908f81)" style="fill: none; stroke: #b0b0b0; stroke-width: 0.8; stroke-linecap: square"/>
     </g>
     <g id="line2d_86">
      <g>
       <use xlink:href="#m7d0a9a6fd8" x="301.317656" y="534.04" style="stroke: #000000; stroke-width: 0.8"/>
      </g>
     </g>
     <g id="text_47">
      <!-- 10 -->
      <g transform="translate(294.955156 548.638438) scale(0.1 -0.1)">
       <use xlink:href="#DejaVuSans-31"/>
       <use xlink:href="#DejaVuSans-30" x="63.623047"/>
      </g>
     </g>
    </g>
    <g id="xtick_24">
     <g id="line2d_87">
      <path d="M 412.987393 534.04 
L 412.987393 395.52 
" clip-path="url(#p3c65908f81)" style="fill: none; stroke: #b0b0b0; stroke-width: 0.8; stroke-linecap: square"/>
     </g>
     <g id="line2d_88">
      <g>
       <use xlink:href="#m7d0a9a6fd8" x="412.987393" y="534.04" style="stroke: #000000; stroke-width: 0.8"/>
      </g>
     </g>
     <g id="text_48">
      <!-- 15 -->
      <g transform="translate(406.624893 548.638438) scale(0.1 -0.1)">
       <use xlink:href="#DejaVuSans-31"/>
       <use xlink:href="#DejaVuSans-35" x="63.623047"/>
      </g>
     </g>
    </g>
    <g id="xtick_25">
     <g id="line2d_89">
      <path d="M 524.65713 534.04 
L 524.65713 395.52 
" clip-path="url(#p3c65908f81)" style="fill: none; stroke: #b0b0b0; stroke-width: 0.8; stroke-linecap: square"/>
     </g>
     <g id="line2d_90">
      <g>
       <use xlink:href="#m7d0a9a6fd8" x="524.65713" y="534.04" style="stroke: #000000; stroke-width: 0.8"/>
      </g>
     </g>
     <g id="text_49">
      <!-- 20 -->
      <g transform="translate(518.29463 548.638438) scale(0.1 -0.1)">
       <use xlink:href="#DejaVuSans-32"/>
       <use xlink:href="#DejaVuSans-30" x="63.623047"/>
      </g>
     </g>
    </g>
    <g id="text_50">
     <!-- Waktu (s) -->
     <g transform="translate(288.751406 562.316562) scale(0.1 -0.1)">
      <use xlink:href="#DejaVuSans-57"/>
      <use xlink:href="#DejaVuSans-61" x="92.501953"/>
      <use xlink:href="#DejaVuSans-6b" x="153.78125"/>
      <use xlink:href="#DejaVuSans-74" x="211.691406"/>
      <use xlink:href="#DejaVuSans-75" x="250.900391"/>
      <use xlink:href="#DejaVuSans-20" x="314.279297"/>
      <use xlink:href="#DejaVuSans-28" x="346.066406"/>
      <use xlink:href="#DejaVuSans-73" x="385.080078"/>
      <use xlink:href="#DejaVuSans-29" x="437.179688"/>
     </g>
    </g>
   </g>
   <g id="matplotlib.axis_10">
    <g id="ytick_17">
     <g id="line2d_91">
      <path d="M 54.52 519.348485 
L 570.6 519.348485 
" clip-path="url(#p3c65908f81)" style="fill: none; stroke: #b0b0b0; stroke-width: 0.8; stroke-linecap: square"/>
     </g>
     <g id="line2d_92">
      <g>
       <use xlink:href="#mc6d661575c" x="54.52" y="519.348485" style="stroke: #000000; stroke-width: 0.8"/>
      </g>
     </g>
     <g id="text_51">
      <!-- −0.005 -->
      <g transform="translate(10.512188 523.147704) scale(0.1 -0.1)">
       <use xlink:href="#DejaVuSans-2212"/>
       <use xlink:href="#DejaVuSans-30" x="83.789062"/>
       <use xlink:href="#DejaVuSans-2e" x="147.412109"/>
       <use xlink:href="#DejaVuSans-30" x="179.199219"/>
       <use xlink:href="#DejaVuSans-30" x="242.822266"/>
       <use xlink:href="#DejaVuSans-35" x="306.445312"/>
      </g>
     </g>
    </g>
    <g id="ytick_18">
     <g id="line2d_93">
      <path d="M 54.52 477.372727 
L 570.6 477.372727 
" clip-path="url(#p3c65908f81)" style="fill: none; stroke: #b0b0b0; stroke-width: 0.8; stroke-linecap: square"/>
     </g>
     <g id="line2d_94">
      <g>
       <use xlink:href="#mc6d661575c" x="54.52" y="477.372727" style="stroke: #000000; stroke-width: 0.8"/>
      </g>
     </g>
     <g id="text_52">
      <!-- 0.000 -->
      <g transform="translate(18.891875 481.171946) scale(0.1 -0.1)">
       <use xlink:href="#DejaVuSans-30"/>
       <use xlink:href="#DejaVuSans-2e" x="63.623047"/>
       <use xlink:href="#DejaVuSans-30" x="95.410156"/>
       <use xlink:href="#DejaVuSans-30" x="159.033203"/>
       <use xlink:href="#DejaVuSans-30" x="222.65625"/>
      </g>
     </g>
    </g>
    <g id="ytick_19">
     <g id="line2d_95">
      <path d="M 54.52 435.39697 
L 570.6 435.39697 
" clip-path="url(#p3c65908f81)" style="fill: none; stroke: #b0b0b0; stroke-width: 0.8; stroke-linecap: square"/>
     </g>
     <g id="line2d_96">
      <g>
       <use xlink:href="#mc6d661575c" x="54.52" y="435.39697" style="stroke: #000000; stroke-width: 0.8"/>
      </g>
     </g>
     <g id="text_53">
      <!-- 0.005 -->
      <g transform="translate(18.891875 439.196188) scale(0.1 -0.1)">
       <use xlink:href="#DejaVuSans-30"/>
       <use xlink:href="#DejaVuSans-2e" x="63.623047"/>
       <use xlink:href="#DejaVuSans-30" x="95.410156"/>
       <use xlink:href="#DejaVuSans-30" x="159.033203"/>
       <use xlink:href="#DejaVuSans-35" x="222.65625"/>
      </g>
     </g>
    </g>
   </g>
   <g id="line2d_97">
    <path d="M 77.989497 477.372727 
L 78.001941 477.372727 
L 78.09716 468.977576 
L 78.098667 477.372727 
L 96.695437 477.372727 
L 96.700288 485.767879 
L 98.196671 485.767879 
L 98.305271 477.372727 
L 102.537098 477.372727 
L 102.592742 485.767879 
L 104.914953 485.767879 
L 104.916625 494.16303 
L 107.008873 494.16303 
L 107.013207 485.767879 
L 111.472862 485.767879 
L 111.478203 477.372727 
L 116.679447 477.372727 
L 116.754783 485.767879 
L 124.264563 485.767879 
L 124.274862 477.372727 
L 129.470696 477.372727 
L 129.532666 468.977576 
L 130.943485 468.977576 
L 130.946355 460.582424 
L 131.746336 460.582424 
L 131.756612 452.187273 
L 132.467956 452.187273 
L 132.524218 443.792121 
L 133.17324 443.792121 
L 133.178714 435.39697 
L 134.066555 435.39697 
L 134.075634 427.001818 
L 134.698841 427.001818 
L 134.703596 418.606667 
L 136.154755 418.606667 
L 136.212168 401.816364 
L 139.032085 401.816364 
L 139.035642 410.211515 
L 139.787965 410.211515 
L 139.791517 418.606667 
L 140.506902 418.606667 
L 140.586349 427.001818 
L 142.873501 427.001818 
L 142.933442 435.39697 
L 144.333659 435.39697 
L 144.409676 443.792121 
L 145.821602 443.792121 
L 145.826336 452.187273 
L 146.714438 452.187273 
L 146.777058 443.792121 
L 147.996395 443.792121 
L 147.99852 452.187273 
L 148.740173 452.187273 
L 148.746168 460.582424 
L 149.555665 460.582424 
L 149.55886 477.372727 
L 150.29826 477.372727 
L 150.300113 485.767879 
L 151.042458 485.767879 
L 151.132235 494.16303 
L 151.804041 494.16303 
L 151.80967 502.558182 
L 152.527574 502.558182 
L 152.530944 519.348485 
L 154.754672 519.348485 
L 154.76144 527.743636 
L 157.737684 527.743636 
L 157.741475 519.348485 
L 165.91605 519.348485 
L 165.961998 527.743636 
L 169.625229 527.743636 
L 169.669116 519.348485 
L 170.367909 519.348485 
L 170.370657 510.953333 
L 171.862546 510.953333 
L 171.9704 502.558182 
L 173.315548 502.558182 
L 173.333045 494.16303 
L 174.123596 494.16303 
L 174.204576 485.767879 
L 174.857591 485.767879 
L 174.86659 477.372727 
L 176.335407 477.372727 
L 176.342457 468.977576 
L 177.084695 468.977576 
L 177.089067 460.582424 
L 177.80999 460.582424 
L 177.820597 452.187273 
L 179.280271 452.187273 
L 179.283344 443.792121 
L 180.048809 443.792121 
L 180.081503 435.39697 
L 180.775776 435.39697 
L 180.837869 443.792121 
L 182.999285 443.792121 
L 183.002347 452.187273 
L 184.482772 452.187273 
L 184.485509 460.582424 
L 185.988362 460.582424 
L 186.0876 468.977576 
L 187.462428 468.977576 
L 187.467184 477.372727 
L 274.57343 477.372727 
L 274.591391 468.977576 
L 288.719933 468.977576 
L 288.723836 477.372727 
L 547.141818 477.372727 
L 547.141818 477.372727 
" clip-path="url(#p3c65908f81)" style="fill: none; stroke: #9467bd; stroke-width: 1.5; stroke-linecap: square"/>
   </g>
   <g id="patch_27">
    <path d="M 54.52 534.04 
L 54.52 395.52 
" style="fill: none; stroke: #000000; stroke-width: 0.8; stroke-linejoin: miter; stroke-linecap: square"/>
   </g>
   <g id="patch_28">
    <path d="M 570.6 534.04 
L 570.6 395.52 
" style="fill: none; stroke: #000000; stroke-width: 0.8; stroke-linejoin: miter; stroke-linecap: square"/>
   </g>
   <g id="patch_29">
    <path d="M 54.52 534.04 
L 570.6 534.04 
" style="fill: none; stroke: #000000; stroke-width: 0.8; stroke-linejoin: miter; stroke-linecap: square"/>
   </g>
   <g id="patch_30">
    <path d="M 54.52 395.52 
L 570.6 395.52 
" style="fill: none; stroke: #000000; stroke-width: 0.8; stroke-linejoin: miter; stroke-linecap: square"/>
   </g>
   <g id="legend_5">
    <g id="patch_31">
     <path d="M 458.426563 418.198125 
L 563.6 418.198125 
Q 565.6 418.198125 565.6 416.198125 
L 565.6 402.52 
Q 565.6 400.52 563.6 400.52 
L 458.426563 400.52 
Q 456.426563 400.52 456.426563 402.52 
L 456.426563 416.198125 
Q 456.426563 418.198125 458.426563 418.198125 
z
" style="fill: #ffffff; opacity: 0.8; stroke: #cccccc; stroke-linejoin: miter"/>
    </g>
    <g id="line2d_98">
     <path d="M 460.426563 408.618437 
L 470.426563 408.618437 
L 480.426563 408.618437 
" style="fill: none; stroke: #9467bd; stroke-width: 1.5; stroke-linecap: square"/>
    </g>
    <g id="text_54">
     <!-- Sudut ayun (°) -->
     <g transform="translate(488.426563 412.118437) scale(0.1 -0.1)">
      <defs>
       <path id="DejaVuSans-53" d="M 3425 4513 
L 3425 3897 
Q 3066 4069 2747 4153 
Q 2428 4238 2131 4238 
Q 1616 4238 1336 4038 
Q 1056 3838 1056 3469 
Q 1056 3159 1242 3001 
Q 1428 2844 1947 2747 
L 2328 2669 
Q 3034 2534 3370 2195 
Q 3706 1856 3706 1288 
Q 3706 609 3251 259 
Q 2797 -91 1919 -91 
Q 1588 -91 1214 -16 
Q 841 59 441 206 
L 441 856 
Q 825 641 1194 531 
Q 1563 422 1919 422 
Q 2459 422 2753 634 
Q 3047 847 3047 1241 
Q 3047 1584 2836 1778 
Q 2625 1972 2144 2069 
L 1759 2144 
Q 1053 2284 737 2584 
Q 422 2884 422 3419 
Q 422 4038 858 4394 
Q 1294 4750 2059 4750 
Q 2388 4750 2728 4690 
Q 3069 4631 3425 4513 
z
" transform="scale(0.015625)"/>
       <path id="DejaVuSans-64" d="M 2906 2969 
L 2906 4863 
L 3481 4863 
L 3481 0 
L 2906 0 
L 2906 525 
Q 2725 213 2448 61 
Q 2172 -91 1784 -91 
Q 1150 -91 751 415 
Q 353 922 353 1747 
Q 353 2572 751 3078 
Q 1150 3584 1784 3584 
Q 2172 3584 2448 3432 
Q 2725 3281 2906 2969 
z
M 947 1747 
Q 947 1113 1208 752 
Q 1469 391 1925 391 
Q 2381 391 2643 752 
Q 2906 1113 2906 1747 
Q 2906 2381 2643 2742 
Q 2381 3103 1925 3103 
Q 1469 3103 1208 2742 
Q 947 2381 947 1747 
z
" transform="scale(0.015625)"/>
       <path id="DejaVuSans-79" d="M 2059 -325 
Q 1816 -950 1584 -1140 
Q 1353 -1331 966 -1331 
L 506 -1331 
L 506 -850 
L 844 -850 
Q 1081 -850 1212 -737 
Q 1344 -625 1503 -206 
L 1606 56 
L 191 3500 
L 800 3500 
L 1894 763 
L 2988 3500 
L 3597 3500 
L 2059 -325 
z
" transform="scale(0.015625)"/>
       <path id="DejaVuSans-b0" d="M 1600 4347 
Q 1350 4347 1178 4173 
Q 1006 4000 1006 3750 
Q 1006 3503 1178 3333 
Q 1350 3163 1600 3163 
Q 1850 3163 2022 3333 
Q 2194 3503 2194 3750 
Q 2194 3997 2020 4172 
Q 1847 4347 1600 4347 
z
M 1600 4750 
Q 1800 4750 1984 4673 
Q 2169 4597 2303 4453 
Q 2447 4313 2519 4134 
Q 2591 3956 2591 3750 
Q 2591 3338 2302 3052 
Q 2013 2766 1594 2766 
Q 1172 2766 890 3047 
Q 609 3328 609 3750 
Q 609 4169 896 4459 
Q 1184 4750 1600 4750 
z
" transform="scale(0.015625)"/>
      </defs>
      <use xlink:href="#DejaVuSans-53"/>
      <use xlink:href="#DejaVuSans-75" x="63.476562"/>
      <use xlink:href="#DejaVuSans-64" x="126.855469"/>
      <use xlink:href="#DejaVuSans-75" x="190.332031"/>
      <use xlink:href="#DejaVuSans-74" x="253.710938"/>
      <use xlink:href="#DejaVuSans-20" x="292.919922"/>
      <use xlink:href="#DejaVuSans-61" x="324.707031"/>
      <use xlink:href="#DejaVuSans-79" x="385.986328"/>
      <use xlink:href="#DejaVuSans-75" x="445.166016"/>
      <use xlink:href="#DejaVuSans-6e" x="508.544922"/>
      <use xlink:href="#DejaVuSans-20" x="571.923828"/>
      <use xlink:href="#DejaVuSans-28" x="603.710938"/>
      <use xlink:href="#DejaVuSans-b0" x="642.724609"/>
      <use xlink:href="#DejaVuSans-29" x="692.724609"/>
     </g>
    </g>
   </g>
  </g>
  <g id="axes_6">
   <g id="patch_32">
    <path d="M 625.12 534.04 
L 1141.2 534.04 
L 1141.2 395.52 
L 625.12 395.52 
z
" style="fill: #ffffff"/>
   </g>
   <g id="PathCollection_6">
    <g clip-path="url(#p5ad6d0bc3f)">
     <use xlink:href="#m592681eb73" x="648.578182" y="477.372727" style="fill: #1f77b4; fill-opacity: 0; stroke: #1f77b4; stroke-opacity: 0"/>
    </g>
   </g>
   <g id="matplotlib.axis_11">
    <g id="xtick_26">
     <g id="line2d_99">
      <path d="M 648.578182 534.04 
L 648.578182 395.52 
" clip-path="url(#p5ad6d0bc3f)" style="fill: none; stroke: #b0b0b0; stroke-width: 0.8; stroke-linecap: square"/>
     </g>
     <g id="line2d_100">
      <g>
       <use xlink:href="#m7d0a9a6fd8" x="648.578182" y="534.04" style="stroke: #000000; stroke-width: 0.8"/>
      </g>
     </g>
     <g id="text_55">
      <!-- 0 -->
      <g transform="translate(645.396932 548.638438) scale(0.1 -0.1)">
       <use xlink:href="#DejaVuSans-30"/>
      </g>
     </g>
    </g>
    <g id="xtick_27">
     <g id="line2d_101">
      <path d="M 760.247919 534.04 
L 760.247919 395.52 
" clip-path="url(#p5ad6d0bc3f)" style="fill: none; stroke: #b0b0b0; stroke-width: 0.8; stroke-linecap: square"/>
     </g>
     <g id="line2d_102">
      <g>
       <use xlink:href="#m7d0a9a6fd8" x="760.247919" y="534.04" style="stroke: #000000; stroke-width: 0.8"/>
      </g>
     </g>
     <g id="text_56">
      <!-- 5 -->
      <g transform="translate(757.066669 548.638438) scale(0.1 -0.1)">
       <use xlink:href="#DejaVuSans-35"/>
      </g>
     </g>
    </g>
    <g id="xtick_28">
     <g id="line2d_103">
      <path d="M 871.917656 534.04 
L 871.917656 395.52 
" clip-path="url(#p5ad6d0bc3f)" style="fill: none; stroke: #b0b0b0; stroke-width: 0.8; stroke-linecap: square"/>
     </g>
     <g id="line2d_104">
      <g>
       <use xlink:href="#m7d0a9a6fd8" x="871.917656" y="534.04" style="stroke: #000000; stroke-width: 0.8"/>
      </g>
     </g>
     <g id="text_57">
      <!-- 10 -->
      <g transform="translate(865.555156 548.638438) scale(0.1 -0.1)">
       <use xlink:href="#DejaVuSans-31"/>
       <use xlink:href="#DejaVuSans-30" x="63.623047"/>
      </g>
     </g>
    </g>
    <g id="xtick_29">
     <g id="line2d_105">
      <path d="M 983.587393 534.04 
L 983.587393 395.52 
" clip-path="url(#p5ad6d0bc3f)" style="fill: none; stroke: #b0b0b0; stroke-width: 0.8; stroke-linecap: square"/>
     </g>
     <g id="line2d_106">
      <g>
       <use xlink:href="#m7d0a9a6fd8" x="983.587393" y="534.04" style="stroke: #000000; stroke-width: 0.8"/>
      </g>
     </g>
     <g id="text_58">
      <!-- 15 -->
      <g transform="translate(977.224893 548.638438) scale(0.1 -0.1)">
       <use xlink:href="#DejaVuSans-31"/>
       <use xlink:href="#DejaVuSans-35" x="63.623047"/>
      </g>
     </g>
    </g>
    <g id="xtick_30">
     <g id="line2d_107">
      <path d="M 1095.25713 534.04 
L 1095.25713 395.52 
" clip-path="url(#p5ad6d0bc3f)" style="fill: none; stroke: #b0b0b0; stroke-width: 0.8; stroke-linecap: square"/>
     </g>
     <g id="line2d_108">
      <g>
       <use xlink:href="#m7d0a9a6fd8" x="1095.25713" y="534.04" style="stroke: #000000; stroke-width: 0.8"/>
      </g>
     </g>
     <g id="text_59">
      <!-- 20 -->
      <g transform="translate(1088.89463 548.638438) scale(0.1 -0.1)">
       <use xlink:href="#DejaVuSans-32"/>
       <use xlink:href="#DejaVuSans-30" x="63.623047"/>
      </g>
     </g>
    </g>
    <g id="text_60">
     <!-- Waktu (s) -->
     <g transform="translate(859.351406 562.316562) scale(0.1 -0.1)">
      <use xlink:href="#DejaVuSans-57"/>
      <use xlink:href="#DejaVuSans-61" x="92.501953"/>
      <use xlink:href="#DejaVuSans-6b" x="153.78125"/>
      <use xlink:href="#DejaVuSans-74" x="211.691406"/>
      <use xlink:href="#DejaVuSans-75" x="250.900391"/>
      <use xlink:href="#DejaVuSans-20" x="314.279297"/>
      <use xlink:href="#DejaVuSans-28" x="346.066406"/>
      <use xlink:href="#DejaVuSans-73" x="385.080078"/>
      <use xlink:href="#DejaVuSans-29" x="437.179688"/>
     </g>
    </g>
   </g>
   <g id="matplotlib.axis_12">
    <g id="ytick_20">
     <g id="line2d_109">
      <path d="M 625.12 519.348485 
L 1141.2 519.348485 
" clip-path="url(#p5ad6d0bc3f)" style="fill: none; stroke: #b0b0b0; stroke-width: 0.8; stroke-linecap: square"/>
     </g>
     <g id="line2d_110">
      <g>
       <use xlink:href="#mc6d661575c" x="625.12" y="519.348485" style="stroke: #000000; stroke-width: 0.8"/>
      </g>
     </g>
     <g id="text_61">
      <!-- −0.005 -->
      <g transform="translate(581.112188 523.147704) scale(0.1 -0.1)">
       <use xlink:href="#DejaVuSans-2212"/>
       <use xlink:href="#DejaVuSans-30" x="83.789062"/>
       <use xlink:href="#DejaVuSans-2e" x="147.412109"/>
       <use xlink:href="#DejaVuSans-30" x="179.199219"/>
       <use xlink:href="#DejaVuSans-30" x="242.822266"/>
       <use xlink:href="#DejaVuSans-35" x="306.445312"/>
      </g>
     </g>
    </g>
    <g id="ytick_21">
     <g id="line2d_111">
      <path d="M 625.12 477.372727 
L 1141.2 477.372727 
" clip-path="url(#p5ad6d0bc3f)" style="fill: none; stroke: #b0b0b0; stroke-width: 0.8; stroke-linecap: square"/>
     </g>
     <g id="line2d_112">
      <g>
       <use xlink:href="#mc6d661575c" x="625.12" y="477.372727" style="stroke: #000000; stroke-width: 0.8"/>
      </g>
     </g>
     <g id="text_62">
      <!-- 0.000 -->
      <g transform="translate(589.491875 481.171946) scale(0.1 -0.1)">
       <use xlink:href="#DejaVuSans-30"/>
       <use xlink:href="#DejaVuSans-2e" x="63.623047"/>
       <use xlink:href="#DejaVuSans-30" x="95.410156"/>
       <use xlink:href="#DejaVuSans-30" x="159.033203"/>
       <use xlink:href="#DejaVuSans-30" x="222.65625"/>
      </g>
     </g>
    </g>
    <g id="ytick_22">
     <g id="line2d_113">
      <path d="M 625.12 435.39697 
L 1141.2 435.39697 
" clip-path="url(#p5ad6d0bc3f)" style="fill: none; stroke: #b0b0b0; stroke-width: 0.8; stroke-linecap: square"/>
     </g>
     <g id="line2d_114">
      <g>
       <use xlink:href="#mc6d661575c" x="625.12" y="435.39697" style="stroke: #000000; stroke-width: 0.8"/>
      </g>
     </g>
     <g id="text_63">
      <!-- 0.005 -->
      <g transform="translate(589.491875 439.196188) scale(0.1 -0.1)">
       <use xlink:href="#DejaVuSans-30"/>
       <use xlink:href="#DejaVuSans-2e" x="63.623047"/>
       <use xlink:href="#DejaVuSans-30" x="95.410156"/>
       <use xlink:href="#DejaVuSans-30" x="159.033203"/>
       <use xlink:href="#DejaVuSans-35" x="222.65625"/>
      </g>
     </g>
    </g>
   </g>
   <g id="line2d_115">
    <path d="M 648.589497 477.372727 
L 648.601941 477.372727 
L 648.69716 468.977576 
L 648.698667 477.372727 
L 667.295437 477.372727 
L 667.300288 485.767879 
L 668.796671 485.767879 
L 668.905271 477.372727 
L 673.137098 477.372727 
L 673.192742 485.767879 
L 675.514953 485.767879 
L 675.516625 494.16303 
L 677.608873 494.16303 
L 677.613207 485.767879 
L 682.072862 485.767879 
L 682.078203 477.372727 
L 687.279447 477.372727 
L 687.354783 485.767879 
L 694.864563 485.767879 
L 694.874862 477.372727 
L 700.070696 477.372727 
L 700.132666 468.977576 
L 701.543485 468.977576 
L 701.546355 460.582424 
L 702.346336 460.582424 
L 702.356612 452.187273 
L 703.067956 452.187273 
L 703.124218 443.792121 
L 703.77324 443.792121 
L 703.778714 435.39697 
L 704.666555 435.39697 
L 704.675634 427.001818 
L 705.298841 427.001818 
L 705.303596 418.606667 
L 706.754755 418.606667 
L 706.812168 401.816364 
L 709.632085 401.816364 
L 709.635642 410.211515 
L 710.387965 410.211515 
L 710.391517 418.606667 
L 711.106902 418.606667 
L 711.186349 427.001818 
L 713.473501 427.001818 
L 713.533442 435.39697 
L 714.933659 435.39697 
L 715.009676 443.792121 
L 716.421602 443.792121 
L 716.426336 452.187273 
L 717.314438 452.187273 
L 717.377058 443.792121 
L 718.596395 443.792121 
L 718.59852 452.187273 
L 719.340173 452.187273 
L 719.346168 460.582424 
L 720.155665 460.582424 
L 720.15886 477.372727 
L 720.89826 477.372727 
L 720.900113 485.767879 
L 721.642458 485.767879 
L 721.732235 494.16303 
L 722.404041 494.16303 
L 722.40967 502.558182 
L 723.127574 502.558182 
L 723.130944 519.348485 
L 725.354672 519.348485 
L 725.36144 527.743636 
L 728.337684 527.743636 
L 728.341475 519.348485 
L 736.51605 519.348485 
L 736.561998 527.743636 
L 740.225229 527.743636 
L 740.269116 519.348485 
L 740.967909 519.348485 
L 740.970657 510.953333 
L 742.462546 510.953333 
L 742.5704 502.558182 
L 743.915548 502.558182 
L 743.933045 494.16303 
L 744.723596 494.16303 
L 744.804576 485.767879 
L 745.457591 485.767879 
L 745.46659 477.372727 
L 746.935407 477.372727 
L 746.942457 468.977576 
L 747.684695 468.977576 
L 747.689067 460.582424 
L 748.40999 460.582424 
L 748.420597 452.187273 
L 749.880271 452.187273 
L 749.883344 443.792121 
L 750.648809 443.792121 
L 750.681503 435.39697 
L 751.375776 435.39697 
L 751.437869 443.792121 
L 753.599285 443.792121 
L 753.602347 452.187273 
L 755.082772 452.187273 
L 755.085509 460.582424 
L 756.588362 460.582424 
L 756.6876 468.977576 
L 758.062428 468.977576 
L 758.067184 477.372727 
L 845.17343 477.372727 
L 845.191391 468.977576 
L 859.319933 468.977576 
L 859.323836 477.372727 
L 1117.741818 477.372727 
L 1117.741818 477.372727 
" clip-path="url(#p5ad6d0bc3f)" style="fill: none; stroke: #9467bd; stroke-width: 1.5; stroke-linecap: square"/>
   </g>
   <g id="patch_33">
    <path d="M 625.12 534.04 
L 625.12 395.52 
" style="fill: none; stroke: #000000; stroke-width: 0.8; stroke-linejoin: miter; stroke-linecap: square"/>
   </g>
   <g id="patch_34">
    <path d="M 1141.2 534.04 
L 1141.2 395.52 
" style="fill: none; stroke: #000000; stroke-width: 0.8; stroke-linejoin: miter; stroke-linecap: square"/>
   </g>
   <g id="patch_35">
    <path d="M 625.12 534.04 
L 1141.2 534.04 
" style="fill: none; stroke: #000000; stroke-width: 0.8; stroke-linejoin: miter; stroke-linecap: square"/>
   </g>
   <g id="patch_36">
    <path d="M 625.12 395.52 
L 1141.2 395.52 
" style="fill: none; stroke: #000000; stroke-width: 0.8; stroke-linejoin: miter; stroke-linecap: square"/>
   </g>
   <g id="legend_6">
    <g id="patch_37">
     <path d="M 1029.026563 418.198125 
L 1134.2 418.198125 
Q 1136.2 418.198125 1136.2 416.198125 
L 1136.2 402.52 
Q 1136.2 400.52 1134.2 400.52 
L 1029.026563 400.52 
Q 1027.026563 400.52 1027.026563 402.52 
L 1027.026563 416.198125 
Q 1027.026563 418.198125 1029.026563 418.198125 
z
" style="fill: #ffffff; opacity: 0.8; stroke: #cccccc; stroke-linejoin: miter"/>
    </g>
    <g id="line2d_116">
     <path d="M 1031.026563 408.618437 
L 1041.026563 408.618437 
L 1051.026563 408.618437 
" style="fill: none; stroke: #9467bd; stroke-width: 1.5; stroke-linecap: square"/>
    </g>
    <g id="text_64">
     <!-- Sudut ayun (°) -->
     <g transform="translate(1059.026563 412.118437) scale(0.1 -0.1)">
      <use xlink:href="#DejaVuSans-53"/>
      <use xlink:href="#DejaVuSans-75" x="63.476562"/>
      <use xlink:href="#DejaVuSans-64" x="126.855469"/>
      <use xlink:href="#DejaVuSans-75" x="190.332031"/>
      <use xlink:href="#DejaVuSans-74" x="253.710938"/>
      <use xlink:href="#DejaVuSans-20" x="292.919922"/>
      <use xlink:href="#DejaVuSans-61" x="324.707031"/>
      <use xlink:href="#DejaVuSans-79" x="385.986328"/>
      <use xlink:href="#DejaVuSans-75" x="445.166016"/>
      <use xlink:href="#DejaVuSans-6e" x="508.544922"/>
      <use xlink:href="#DejaVuSans-20" x="571.923828"/>
      <use xlink:href="#DejaVuSans-28" x="603.710938"/>
      <use xlink:href="#DejaVuSans-b0" x="642.724609"/>
      <use xlink:href="#DejaVuSans-29" x="692.724609"/>
     </g>
    </g>
   </g>
  </g>
  <g id="text_65">
   <!-- Data 33 -->
   <g transform="translate(552.132187 20.638125) scale(0.12 -0.12)">
    <defs>
     <path id="DejaVuSans-44" d="M 1259 4147 
L 1259 519 
L 2022 519 
Q 2988 519 3436 956 
Q 3884 1394 3884 2338 
Q 3884 3275 3436 3711 
Q 2988 4147 2022 4147 
L 1259 4147 
z
M 628 4666 
L 1925 4666 
Q 3281 4666 3915 4102 
Q 4550 3538 4550 2338 
Q 4550 1131 3912 565 
Q 3275 0 1925 0 
L 628 0 
L 628 4666 
z
" transform="scale(0.015625)"/>
     <path id="DejaVuSans-33" d="M 2597 2516 
Q 3050 2419 3304 2112 
Q 3559 1806 3559 1356 
Q 3559 666 3084 287 
Q 2609 -91 1734 -91 
Q 1441 -91 1130 -33 
Q 819 25 488 141 
L 488 750 
Q 750 597 1062 519 
Q 1375 441 1716 441 
Q 2309 441 2620 675 
Q 2931 909 2931 1356 
Q 2931 1769 2642 2001 
Q 2353 2234 1838 2234 
L 1294 2234 
L 1294 2753 
L 1863 2753 
Q 2328 2753 2575 2939 
Q 2822 3125 2822 3475 
Q 2822 3834 2567 4026 
Q 2313 4219 1838 4219 
Q 1578 4219 1281 4162 
Q 984 4106 628 3988 
L 628 4550 
Q 988 4650 1302 4700 
Q 1616 4750 1894 4750 
Q 2613 4750 3031 4423 
Q 3450 4097 3450 3541 
Q 3450 3153 3228 2886 
Q 3006 2619 2597 2516 
z
" transform="scale(0.015625)"/>
    </defs>
    <use xlink:href="#DejaVuSans-44"/>
    <use xlink:href="#DejaVuSans-61" x="77.001953"/>
    <use xlink:href="#DejaVuSans-74" x="138.28125"/>
    <use xlink:href="#DejaVuSans-61" x="177.490234"/>
    <use xlink:href="#DejaVuSans-20" x="238.769531"/>
    <use xlink:href="#DejaVuSans-33" x="270.556641"/>
    <use xlink:href="#DejaVuSans-33" x="334.179688"/>
   </g>
  </g>
 </g>
 <defs>
  <clipPath id="p57b0de01b2">
   <rect x="54.52" y="34.56" width="516.08" height="138.52"/>
  </clipPath>
  <clipPath id="p9046965c22">
   <rect x="625.12" y="34.56" width="516.08" height="138.52"/>
  </clipPath>
  <clipPath id="p4e2d904a69">
   <rect x="54.52" y="215.04" width="516.08" height="138.52"/>
  </clipPath>
  <clipPath id="pac50c8e7c7">
   <rect x="625.12" y="215.04" width="516.08" height="138.52"/>
  </clipPath>
  <clipPath id="p3c65908f81">
   <rect x="54.52" y="395.52" width="516.08" height="138.52"/>
  </clipPath>
  <clipPath id="p5ad6d0bc3f">
   <rect x="625.12" y="395.52" width="516.08" height="138.52"/>
  </clipPath>
 </defs>
</svg>
